<svg width="81" height="80" viewBox="0 0 81 80" fill="none" xmlns="http://www.w3.org/2000/svg">
<path d="M0.5 40C0.5 17.9086 18.4086 0 40.5 0V0C62.5914 0 80.5 17.9086 80.5 40V40C80.5 62.0914 62.5914 80 40.5 80V80C18.4086 80 0.5 62.0914 0.5 40V40Z" fill="url(#paint0_linear_1075_4276)"/>
<path d="M20.5625 20.0625H60.4375V59.9375H20.5625V20.0625Z" stroke="white" stroke-width="0.125"/>
<path d="M54.25 27.5H26.75C26.0596 27.5 25.5 28.0596 25.5 28.75V51.25C25.5 51.9404 26.0596 52.5 26.75 52.5H54.25C54.9404 52.5 55.5 51.9404 55.5 51.25V28.75C55.5 28.0596 54.9404 27.5 54.25 27.5Z" stroke="white" stroke-width="2" stroke-linecap="round" stroke-linejoin="round"/>
<path d="M25.5 51.25L33.3661 40.3295C33.4821 40.225 33.6199 40.1422 33.7716 40.0856C33.9233 40.0291 34.0858 40 34.2499 40C34.4141 40 34.5766 40.0291 34.7283 40.0856C34.88 40.1422 35.0178 40.225 35.1338 40.3295L42.1161 46.6135C42.2321 46.718 42.3699 46.8008 42.5216 46.8574C42.6733 46.9139 42.8358 46.943 42.9999 46.943C43.1641 46.943 43.3266 46.9139 43.4783 46.8574C43.63 46.8008 43.7678 46.718 43.8838 46.6135L47.1161 43.7045C47.2321 43.6 47.3699 43.5172 47.5216 43.4606C47.6733 43.4041 47.8358 43.375 47.9999 43.375C48.1641 43.375 48.3266 43.4041 48.4783 43.4606C48.63 43.5172 48.7678 43.6 48.8838 43.7045L55.5 51.25" fill="white" stroke="white" stroke-width="2" stroke-linecap="round" stroke-linejoin="round"/>
<path d="M46.6875 35.625C46.6875 36.626 45.876 37.4375 44.875 37.4375C43.874 37.4375 43.0625 36.626 43.0625 35.625C43.0625 34.624 43.874 33.8125 44.875 33.8125C45.876 33.8125 46.6875 34.624 46.6875 35.625Z" fill="white" stroke="white" stroke-width="0.125"/>
<defs>
<linearGradient id="paint0_linear_1075_4276" x1="40.571" y1="-16.7521" x2="-10.2123" y2="80.1096" gradientUnits="userSpaceOnUse">
<stop stop-color="#23D3A4"/>
<stop offset="1" stop-color="#5B49CF"/>
</linearGradient>
</defs>
</svg>
