<svg width="463" height="448" viewBox="0 0 463 448" fill="none" xmlns="http://www.w3.org/2000/svg">
<path d="M437.131 67.0039H209.718V387.178H437.131V67.0039Z" fill="#EBEBEB"/>
<path d="M407.603 31.5512C409.912 30.1576 412.396 29.0786 414.99 28.343L416.513 21.0275L428.875 20.8027L430.653 28.0671C433.277 28.7113 435.803 29.7044 438.163 31.0199L444.405 26.933L453.305 35.5154L449.432 41.9011C450.826 44.2131 451.905 46.7008 452.64 49.2984L459.956 50.8207L460.17 63.1834L452.916 64.9612C452.269 67.581 451.276 70.103 449.964 72.4606L454.05 78.7135L445.458 87.6024L439.072 83.7301C436.764 85.127 434.28 86.2093 431.685 86.9485L430.163 94.264L417.8 94.4786L416.022 87.2244C413.402 86.5774 410.88 85.5844 408.523 84.2716L402.27 88.3585L393.381 79.7659L397.253 73.3802C395.85 71.0716 394.768 68.5831 394.035 65.9829L386.719 64.4606L386.505 52.0978L393.759 50.3201C394.41 47.7014 395.402 45.1799 396.712 42.8207L392.625 36.578L401.218 27.6789L407.603 31.5512ZM414.193 48.0212C412.364 49.9091 411.136 52.2975 410.664 54.8839C410.193 57.4702 410.5 60.1383 411.546 62.5501C412.592 64.962 414.331 67.0091 416.541 68.4323C418.752 69.8555 421.335 70.5907 423.963 70.5449C426.592 70.499 429.148 69.6742 431.307 68.1748C433.466 66.6754 435.132 64.5689 436.094 62.122C437.055 59.6752 437.269 56.9981 436.708 54.4297C436.147 51.8613 434.836 49.5172 432.942 47.6943C430.407 45.2598 427.01 43.9293 423.496 43.9944C419.982 44.0596 416.637 45.5149 414.193 48.0416V48.0212Z" fill="#E0E0E0"/>
<path d="M414.193 48.0407C414.89 47.1792 415.725 46.4402 416.666 45.8543C419.222 44.1904 422.278 43.468 425.309 43.8108C427.405 44.0181 429.421 44.7183 431.194 45.8543C433.231 47.1855 434.875 49.0375 435.955 51.2183C437.17 53.6685 437.615 56.4287 437.233 59.1365C436.855 62.021 435.558 64.7069 433.533 66.7958C431.509 68.8848 428.865 70.2654 425.994 70.733C424.644 70.9727 423.264 70.9934 421.907 70.7943C420.608 70.6514 419.34 70.3067 418.147 69.7726C415.93 68.7745 414.024 67.1966 412.63 65.2055C411.148 63.0965 410.307 60.6046 410.207 58.0291C410.108 55.4536 410.754 52.9042 412.068 50.687C412.607 49.7338 413.297 48.8746 414.111 48.1429C414.183 48.2042 413.314 49.0114 412.293 50.83C410.867 53.4162 410.349 56.4054 410.821 59.3204C411.14 61.3153 411.92 63.2081 413.1 64.8479C414.455 66.7198 416.281 68.2002 418.392 69.1391C420.729 70.1636 423.315 70.4798 425.83 70.0484C428.532 69.5859 431.015 68.2732 432.919 66.3014C434.823 64.3296 436.048 61.8016 436.415 59.0855C436.75 56.5579 436.342 53.9876 435.24 51.6882C434.229 49.6183 432.684 47.855 430.765 46.5797C429.086 45.4665 427.168 44.7663 425.166 44.5362C422.238 44.1657 419.27 44.7881 416.737 46.3038C415.031 47.2131 414.254 48.1122 414.193 48.0407Z" fill="#E0E0E0"/>
<path d="M407.604 31.551C407.461 31.4922 407.324 31.4204 407.195 31.3364L405.969 30.6314L401.106 27.8013H401.259L392.727 36.7515V36.5063L396.814 42.7387L397.019 42.7898L396.957 42.9124C395.661 45.2543 394.686 47.7594 394.056 50.3607V50.5038H393.913L386.659 52.302L386.863 52.0363C386.945 55.9325 387.026 60.0534 387.108 64.3991L386.802 64.2458L394.117 65.7477H394.311L394.362 65.9316C395.092 68.4989 396.164 70.9562 397.55 73.2369L397.652 73.4106L397.55 73.5843L393.688 79.97L393.637 79.5511L402.536 88.1335H402.097L408.339 84.0466L408.523 83.924L408.717 84.0364C411.048 85.3272 413.539 86.3062 416.125 86.9483H416.339L416.401 87.1629C416.952 89.4311 417.565 91.9138 418.178 94.417L417.811 94.1412L430.173 93.9164L429.806 94.2127L431.328 86.8972L431.379 86.6724L431.604 86.6111C434.162 85.8839 436.612 84.8187 438.889 83.4438V83.4438L439.093 83.3314L439.287 83.4438L445.673 87.3263H445.203L453.785 78.4374V78.9074L449.698 72.6545L449.565 72.4706L449.678 72.2663C450.977 69.9416 451.959 67.4539 452.6 64.8691L452.651 64.6443H452.866L460.13 62.8767L459.854 63.2343C459.786 59.0112 459.718 54.8903 459.65 50.8716L459.926 51.2087L452.61 49.6762H452.406L452.355 49.4718C451.626 46.9043 450.561 44.4444 449.187 42.1563L449.085 41.9827L449.126 41.7681L453.009 35.3824L453.06 35.7809L444.181 27.1678H444.549L438.286 31.2547L438.153 31.3466L438.01 31.2649C435.676 29.9569 433.178 28.9673 430.582 28.3223H430.429V28.1793C429.785 25.5331 429.213 23.1627 428.671 20.9149L428.896 21.0886L416.533 21.2419L416.697 21.109C416.063 24.0311 415.553 26.422 415.123 28.4143V28.4858H415.052C413.101 29.0306 411.205 29.7593 409.392 30.6621L408.063 31.3568C407.923 31.4434 407.776 31.5186 407.624 31.5816C407.756 31.4827 407.892 31.3906 408.033 31.3057C408.319 31.1321 408.748 30.8664 409.341 30.5497C411.138 29.5937 413.027 28.8235 414.98 28.2508L414.899 28.3428C415.297 26.2993 415.777 23.9494 416.37 21.0171V20.8843H416.503L428.866 20.6084H429.039V20.7821C429.591 23.0299 430.184 25.4002 430.837 28.0363L430.654 27.8524C433.301 28.4945 435.85 29.4876 438.235 30.8051H437.949L444.181 26.7182L444.375 26.5956L444.549 26.7489L453.458 35.3211L453.642 35.4948L453.509 35.7093C452.253 37.7528 450.975 39.9188 449.647 42.1053V41.7681C451.059 44.1025 452.155 46.614 452.906 49.2368L452.651 48.9916L459.967 50.514H460.242V50.8001C460.324 54.812 460.402 58.9295 460.477 63.1526V63.4489L460.202 63.5102L452.947 65.2982L453.213 65.0325C452.559 67.6838 451.555 70.2365 450.23 72.6239V72.2356L454.316 78.4885L454.48 78.7337L454.265 78.9483L445.683 87.8474L445.479 88.062L445.213 87.9087L438.909 84.0671H439.297C436.961 85.4802 434.446 86.573 431.818 87.3161L432.084 87.03L430.562 94.3455L430.5 94.6418H430.194L417.831 94.8462H417.535L417.463 94.5601C416.85 92.0467 416.247 89.5741 415.696 87.2957L415.961 87.5716C413.311 86.9085 410.759 85.9021 408.37 84.5779H408.748L402.495 88.6648L402.26 88.818L402.056 88.6239C398.991 85.6303 395.925 82.7184 393.167 80.0211L392.973 79.827L393.116 79.6022L396.998 73.2165V73.5639C395.597 71.2242 394.511 68.7094 393.77 66.0849L393.954 66.2892L386.638 64.7567H386.403V64.5217C386.328 60.1828 386.263 56.0619 386.209 52.1589V51.9444L386.413 51.8933L393.678 50.1359L393.504 50.3096C394.172 47.6793 395.189 45.1503 396.528 42.7898V43.0146L392.441 36.7515L392.36 36.6187L392.472 36.5165L401.106 27.6174L401.177 27.5458L401.259 27.5969L405.959 30.5292L407.175 31.2955C407.322 31.3732 407.465 31.4584 407.604 31.551V31.551Z" fill="#E0E0E0"/>
<path d="M353.656 6.54865C355.044 5.71729 356.535 5.07151 358.091 4.62783L359 0.254894L366.397 0.12207L367.419 4.46436C368.99 4.84856 370.502 5.44311 371.914 6.23192L375.654 3.77981L380.977 8.88838L378.658 12.7096C379.53 14.095 380.207 15.594 380.67 17.1643L385.054 18.0838L385.186 25.481L380.834 26.5027C380.45 28.074 379.855 29.5861 379.066 30.9983L381.518 34.7377L376.41 40.0609L372.497 37.7825C371.118 38.6224 369.634 39.2752 368.083 39.7237L367.174 44.1069L359.766 44.2295L358.744 39.8872C357.176 39.503 355.668 38.9084 354.259 38.1196L350.52 40.5717L345.196 35.4632L347.465 31.55C346.635 30.1649 345.989 28.6777 345.544 27.126L341.171 26.2167L341.038 18.8092L345.38 17.7875C345.767 16.2204 346.362 14.712 347.148 13.3022L344.696 9.56271L349.804 4.22936L353.626 6.54865H353.656ZM357.61 16.4082C356.521 17.5382 355.792 18.9656 355.514 20.51C355.235 22.0545 355.421 23.6468 356.048 25.0857C356.674 26.5246 357.713 27.7455 359.033 28.5943C360.353 29.4432 361.895 29.8817 363.464 29.8546C365.033 29.8275 366.559 29.336 367.848 28.4421C369.138 27.5482 370.134 26.2921 370.711 24.8324C371.287 23.3727 371.418 21.775 371.086 20.2411C370.755 18.7071 369.977 17.3058 368.849 16.2141C368.1 15.4865 367.214 14.9141 366.243 14.5299C365.271 14.1457 364.234 13.9572 363.189 13.9753C362.145 13.9933 361.115 14.2175 360.157 14.635C359.2 15.0526 358.334 15.6552 357.61 16.4082V16.4082Z" fill="#F5F5F5"/>
<path d="M357.61 16.4081C358.025 15.897 358.522 15.4585 359.081 15.1106C360.614 14.1155 362.445 13.6823 364.261 13.8845C365.613 14.0307 366.905 14.5169 368.019 15.2976C369.132 16.0784 370.029 17.1283 370.626 18.3494C370.986 19.0481 371.231 19.8001 371.352 20.5767C371.485 21.3853 371.485 22.2101 371.352 23.0186C371.13 24.7416 370.359 26.3475 369.154 27.5987C367.949 28.8499 366.373 29.68 364.66 29.9663C363.847 30.0938 363.02 30.0938 362.208 29.9663C361.098 29.8161 360.032 29.4381 359.075 28.8562C358.119 28.2742 357.293 27.5007 356.649 26.5844C355.924 25.5514 355.455 24.3607 355.28 23.1106C355.005 21.3044 355.366 19.4588 356.302 17.8896C356.633 17.3184 357.054 16.8043 357.549 16.3673C357.549 16.3673 357.068 16.8883 356.455 17.9816C355.922 18.9292 355.594 19.9778 355.49 21.06C355.387 22.1422 355.511 23.2341 355.854 24.2655C356.198 25.297 356.753 26.2452 357.485 27.0492C358.216 27.8533 359.108 28.4954 360.103 28.9343C360.783 29.2426 361.507 29.4426 362.248 29.5269C363.015 29.6424 363.796 29.6251 364.557 29.4759C366.177 29.2053 367.666 28.4219 368.807 27.241C369.947 26.0601 370.678 24.5441 370.892 22.9165C371.02 22.1521 371.02 21.3718 370.892 20.6074C370.775 19.8738 370.551 19.1613 370.228 18.4924C369.618 17.2518 368.691 16.1945 367.541 15.4273C366.55 14.7596 365.416 14.3328 364.231 14.1808C362.461 13.9386 360.662 14.2985 359.122 15.2025C358.11 15.9177 357.64 16.449 357.61 16.4081Z" fill="#F5F5F5"/>
<path d="M353.657 6.54919L353.411 6.42658L352.686 5.99746L349.805 4.30142H349.887L344.778 9.6552V9.51216L347.24 13.2414V13.3129V13.3845C346.471 14.7914 345.887 16.2922 345.503 17.8493V17.9311H345.422L341.079 19.0141L341.202 18.8506C341.202 21.1801 341.294 23.6527 341.345 26.2478L341.202 26.0741L345.585 26.9835H345.697V27.0959C346.138 28.6315 346.781 30.1019 347.608 31.4688L347.669 31.571L347.608 31.6731L345.299 35.4944V35.2491L350.632 40.3577H350.367L354.106 37.9056L354.219 37.8341L354.331 37.8954C355.726 38.6684 357.217 39.2525 358.765 39.6323H358.898V39.7651C359.235 41.124 359.603 42.6055 359.971 44.1074L359.746 43.9439L367.143 43.8111L366.929 43.9848C367.215 42.6055 367.532 41.1138 367.838 39.6119V39.4688H367.971C369.502 39.0278 370.968 38.389 372.334 37.5684V37.5684L372.456 37.4969L372.579 37.5684L376.4 39.8877H376.114C377.851 38.0895 379.567 36.3219 381.223 34.5646V34.8507L378.77 31.1112L378.699 30.9886L378.76 30.8762C379.538 29.4827 380.125 27.9914 380.507 26.442V26.3091H380.63L384.972 25.2874L384.809 25.502C384.768 22.9818 384.727 20.516 384.686 18.1048L384.86 18.3091L380.477 17.3896H380.354V17.267C379.92 15.7289 379.285 14.255 378.464 12.8838L378.392 12.7816L378.464 12.6795L380.783 8.86848V9.09326C378.913 7.28482 377.146 5.57856 375.47 3.98469H375.685L371.935 6.42658L371.853 6.48789H371.772C370.401 5.66951 368.926 5.03731 367.388 4.60793H367.297V4.52619C366.919 2.94254 366.571 1.52235 366.275 0.173692L366.408 0.275861L359.01 0.367816L359.113 0.296296C358.735 2.04343 358.428 3.47383 358.173 4.66923C356.981 5.0043 355.825 5.45249 354.719 6.00768L353.922 6.42658C353.841 6.48451 353.752 6.52933 353.657 6.55941L353.912 6.39593C354.076 6.29376 354.331 6.13028 354.689 5.94638C355.766 5.37198 356.899 4.90978 358.07 4.56706L358.019 4.62837C358.254 3.43296 358.54 1.99234 358.898 0.234994V0.163474H358.98L366.377 0H366.479V0.112387C366.816 1.45083 367.164 2.87102 367.501 4.45467L367.399 4.34228C368.98 4.72541 370.502 5.31996 371.925 6.10985H371.761L375.562 3.6373L375.685 3.55556L375.787 3.65774L381.12 8.76631L381.223 8.86848L381.151 9.0013L378.832 12.8225V12.6182C379.681 14.015 380.338 15.5204 380.783 17.0933L380.63 16.9502L385.013 17.8596H385.177V18.023C385.228 20.4343 385.268 22.8966 385.32 25.4305V25.5939L385.156 25.645L380.804 26.6667L380.967 26.5033C380.581 28.0918 379.983 29.6211 379.189 31.0499V30.8251L381.692 34.6157L381.784 34.7587L381.662 34.8915L376.553 40.2147L376.431 40.3475L376.277 40.2555L372.446 37.9363H372.681C371.283 38.7808 369.778 39.4337 368.206 39.8775L368.369 39.714C368.053 41.216 367.746 42.7077 367.45 44.087V44.2709H367.266L359.869 44.3935H359.685V44.2198C359.317 42.7179 358.959 41.2364 358.663 39.8673L358.827 40.0308C357.182 39.6664 355.594 39.0822 354.106 38.2938H354.331L350.592 40.746L350.448 40.8379L350.326 40.746C348.487 38.958 346.678 37.2211 345.013 35.6374L344.89 35.525L344.982 35.3922L347.302 31.571V31.7753C346.462 30.3759 345.813 28.871 345.371 27.3002L345.514 27.433L341.13 26.442H340.987V26.2989C340.987 23.7038 340.916 21.1904 340.875 18.9017V18.7689H340.998L345.35 17.7472L345.238 17.8596C345.631 16.2768 346.236 14.7543 347.036 13.3334V13.4764L344.604 9.72672L344.553 9.64498L344.614 9.58368C346.719 7.42786 348.456 5.63986 349.784 4.2912H349.835L352.655 6.04855L353.371 6.50832L353.657 6.54919Z" fill="#F5F5F5"/>
<path d="M155.444 22.8564H21.6914V244.262H155.444V22.8564Z" fill="#E0E0E0"/>
<path d="M151 22.8564H17.2471V244.262H151V22.8564Z" fill="#EBEBEB"/>
<path d="M145.309 27.3408H22.9385V239.765H145.309V27.3408Z" fill="#FAFAFA"/>
<path d="M121.482 54.9482H46.2324V212.17H121.482V54.9482Z" fill="#EBEBEB"/>
<path d="M46.2331 156.527C46.0594 141.845 59.2702 127.51 73.8194 125.456C80.7569 124.435 88.1234 125.855 94.6011 123.198C106.167 118.458 109.845 103.091 121.493 98.5342L122.024 212.169H46.2331V156.527Z" fill="#E0E0E0"/>
<path d="M339.67 398.979C341.188 398.059 342.824 397.347 344.533 396.864L345.555 392.052L353.677 391.909L354.852 396.681C356.576 397.108 358.235 397.76 359.787 398.622L363.874 395.935L369.718 401.575L367.174 405.774C368.091 407.294 368.802 408.93 369.289 410.637L374.101 411.659L374.244 419.833L369.432 420.946C369.003 422.669 368.351 424.328 367.491 425.881L370.178 429.968L364.538 435.812L360.329 433.268C358.81 434.189 357.174 434.9 355.465 435.383L354.444 440.195L346.321 440.338L345.146 435.557C343.423 435.133 341.764 434.484 340.211 433.626L336.124 436.313L330.28 430.663L332.824 426.464C331.904 424.945 331.192 423.309 330.709 421.6L325.897 420.578L325.754 412.456L330.607 411.322C331.034 409.598 331.687 407.939 332.548 406.387L329.861 402.3L335.501 396.446L339.711 399L339.67 398.979ZM344.002 409.81C342.802 411.051 341.997 412.62 341.69 414.318C341.382 416.016 341.585 417.768 342.272 419.351C342.96 420.934 344.102 422.278 345.554 423.212C347.005 424.146 348.701 424.628 350.427 424.598C352.153 424.568 353.831 424.027 355.249 423.043C356.667 422.059 357.762 420.677 358.394 419.071C359.026 417.464 359.168 415.707 358.801 414.02C358.435 412.334 357.576 410.794 356.334 409.595C355.51 408.799 354.538 408.172 353.472 407.752C352.407 407.332 351.269 407.126 350.123 407.146C348.978 407.166 347.848 407.411 346.797 407.868C345.747 408.325 344.797 408.985 344.002 409.81Z" fill="#F5F5F5"/>
<path d="M457.094 447.296C457.094 447.296 457.575 447.296 458.556 447.296H463V447.388C440.011 447.501 346.392 447.593 234.463 447.593L68.6592 447.511L18.4215 447.388H4.76119H1.20562H0H1.20562H4.76119L18.4215 447.337L68.6592 447.256L234.463 447.174C346.392 447.174 440.011 447.266 463 447.378V447.388H458.556C457.575 447.317 457.094 447.296 457.094 447.296Z" fill="#263238"/>
<path d="M418.871 50.3184H189.874V373.435H418.871V50.3184Z" fill="white"/>
<path d="M418.871 373.436C418.871 371.28 418.769 241.196 418.626 50.3188L418.871 50.5538H189.894L190.16 50.2882C190.16 171.372 190.16 283.341 190.109 373.405L189.894 373.191L418.891 373.405L189.894 373.62H189.608V373.405C189.608 283.341 189.608 171.372 189.608 50.2882V50.043H189.894H418.871H419.116V50.2882C418.973 241.196 418.871 371.28 418.871 373.436Z" fill="#263238"/>
<path d="M296.214 264.849H212.127C208.352 264.849 205.292 267.909 205.292 271.684V280.43C205.292 284.205 208.352 287.265 212.127 287.265H296.214C299.989 287.265 303.05 284.205 303.05 280.43V271.684C303.05 267.909 299.989 264.849 296.214 264.849Z" fill="#F5F5F5"/>
<path d="M398.222 264.849H316.301C312.526 264.849 309.466 267.909 309.466 271.684V280.43C309.466 284.205 312.526 287.265 316.301 287.265H398.222C401.997 287.265 405.057 284.205 405.057 280.43V271.684C405.057 267.909 401.997 264.849 398.222 264.849Z" fill="#F5F5F5"/>
<path d="M399.571 310.784H211.667C207.892 310.784 204.832 313.844 204.832 317.619V326.365C204.832 330.14 207.892 333.201 211.667 333.201H399.571C403.346 333.201 406.406 330.14 406.406 326.365V317.619C406.406 313.844 403.346 310.784 399.571 310.784Z" fill="#F5F5F5"/>
<path d="M250.175 255.826C250.175 255.969 240.735 256.092 229.077 256.092C217.419 256.092 207.979 255.969 207.979 255.826C207.979 255.683 217.419 255.561 229.077 255.561C240.735 255.561 250.175 255.683 250.175 255.826Z" fill="#263238"/>
<path d="M350.018 255.826C350.018 255.969 342.58 256.092 333.405 256.092C324.23 256.092 316.781 255.969 316.781 255.826C316.781 255.683 324.219 255.561 333.405 255.561C342.59 255.561 350.018 255.683 350.018 255.826Z" fill="#263238"/>
<path d="M276.966 301.538C276.966 301.681 261.64 301.804 242.738 301.804C223.836 301.804 208.511 301.681 208.511 301.538C208.511 301.395 223.836 301.272 242.738 301.272C261.64 301.272 276.966 301.395 276.966 301.538Z" fill="#263238"/>
<path d="M399.754 213.956H207.887C204.213 213.956 201.235 216.934 201.235 220.607V231.805C201.235 235.479 204.213 238.457 207.887 238.457H399.754C403.428 238.457 406.406 235.479 406.406 231.805V220.607C406.406 216.934 403.428 213.956 399.754 213.956Z" fill="#E0E0E0"/>
<path d="M347.524 226.207C347.524 226.36 329.317 226.473 306.87 226.473C284.423 226.473 266.206 226.36 266.206 226.207C266.206 226.054 284.413 225.941 306.87 225.941C329.328 225.941 347.524 226.064 347.524 226.207Z" fill="#263238"/>
<path d="M399.754 64.9912H207.887C204.213 64.9912 201.235 67.9691 201.235 71.6426V82.8406C201.235 86.514 204.213 89.4919 207.887 89.4919H399.754C403.428 89.4919 406.406 86.514 406.406 82.8406V71.6426C406.406 67.9691 403.428 64.9912 399.754 64.9912Z" fill="#E0E0E0"/>
<path d="M347.524 77.2412C347.524 77.3843 329.317 77.5069 306.87 77.5069C284.423 77.5069 266.206 77.3843 266.206 77.2412C266.206 77.0982 284.413 76.9756 306.87 76.9756C329.328 76.9756 347.524 77.088 347.524 77.2412Z" fill="#263238"/>
<path d="M418.871 95.418C418.871 95.5712 367.56 95.6939 304.275 95.6939C240.99 95.6939 189.659 95.5712 189.659 95.418C189.659 95.2647 240.97 95.1523 304.275 95.1523C367.581 95.1523 418.871 95.275 418.871 95.418Z" fill="#EBEBEB"/>
<path d="M418.871 203.811C418.871 203.964 367.56 204.076 304.275 204.076C240.99 204.076 189.659 203.964 189.659 203.811C189.659 203.657 240.97 203.545 304.275 203.545C367.581 203.545 418.871 203.668 418.871 203.811Z" fill="#EBEBEB"/>
<path d="M296.214 119.989H212.127C208.352 119.989 205.292 123.05 205.292 126.825V135.57C205.292 139.345 208.352 142.406 212.127 142.406H296.214C299.989 142.406 303.05 139.345 303.05 135.57V126.825C303.05 123.05 299.989 119.989 296.214 119.989Z" fill="#F5F5F5"/>
<path d="M398.222 119.989H316.301C312.526 119.989 309.466 123.05 309.466 126.825V135.57C309.466 139.345 312.526 142.406 316.301 142.406H398.222C401.997 142.406 405.057 139.345 405.057 135.57V126.825C405.057 123.05 401.997 119.989 398.222 119.989Z" fill="#F5F5F5"/>
<path d="M399.571 165.926H211.667C207.892 165.926 204.832 168.986 204.832 172.761V181.507C204.832 185.282 207.892 188.342 211.667 188.342H399.571C403.346 188.342 406.406 185.282 406.406 181.507V172.761C406.406 168.986 403.346 165.926 399.571 165.926Z" fill="#F5F5F5"/>
<path d="M250.175 110.967C250.175 111.11 240.735 111.232 229.077 111.232C217.419 111.232 207.979 111.11 207.979 110.967C207.979 110.824 217.419 110.701 229.077 110.701C240.735 110.701 250.175 110.824 250.175 110.967Z" fill="#263238"/>
<path d="M350.018 110.967C350.018 111.11 342.58 111.232 333.405 111.232C324.23 111.232 316.781 111.11 316.781 110.967C316.781 110.824 324.219 110.701 333.405 110.701C342.59 110.701 350.018 110.824 350.018 110.967Z" fill="#263238"/>
<path d="M276.966 156.68C276.966 156.823 261.64 156.945 242.738 156.945C223.836 156.945 208.511 156.823 208.511 156.68C208.511 156.537 223.836 156.414 242.738 156.414C261.64 156.414 276.966 156.537 276.966 156.68Z" fill="#263238"/>
<path d="M399.335 346.82C399.335 346.974 384.388 347.086 365.946 347.086C347.504 347.086 332.566 346.974 332.566 346.82C332.566 346.667 347.504 346.555 365.946 346.555C384.388 346.555 399.335 346.677 399.335 346.82Z" fill="#263238"/>
<path d="M288.04 133.547C287.523 133.717 286.993 133.85 286.457 133.946C282.445 134.684 278.301 134.092 274.656 132.26C273.978 131.908 273.366 131.441 272.848 130.88C272.279 130.277 271.899 129.521 271.754 128.704C271.661 128.269 271.658 127.819 271.748 127.382C271.838 126.946 272.017 126.533 272.275 126.17C272.578 125.795 272.985 125.517 273.445 125.372C273.904 125.227 274.397 125.22 274.86 125.353C275.105 125.424 275.332 125.545 275.527 125.709C275.722 125.873 275.881 126.075 275.994 126.303C276.22 126.766 276.288 127.29 276.189 127.795C275.976 128.786 275.487 129.696 274.779 130.421C273.384 131.985 271.631 133.188 269.67 133.925C267.558 134.723 265.269 134.928 263.049 134.518C261.87 134.317 260.757 133.829 259.81 133.098C259.3 132.724 258.889 132.23 258.615 131.66C258.34 131.089 258.211 130.46 258.237 129.828C258.303 129.179 258.547 128.56 258.942 128.04C259.329 127.485 259.902 127.087 260.556 126.916C260.902 126.848 261.26 126.87 261.595 126.981C261.93 127.092 262.23 127.288 262.467 127.55C262.915 128.077 263.159 128.748 263.152 129.44C263.164 130.116 263.002 130.785 262.681 131.381C262.337 131.969 261.861 132.469 261.292 132.842C260.158 133.521 258.923 134.014 257.634 134.303C255.151 135.008 252.444 135.774 249.685 135.151C248.303 134.851 247.034 134.164 246.028 133.169C245.506 132.662 245.095 132.053 244.821 131.38C244.546 130.706 244.415 129.983 244.434 129.256C244.444 128.789 244.548 128.328 244.74 127.902C244.931 127.476 245.206 127.092 245.547 126.773C245.924 126.476 246.377 126.291 246.855 126.241C247.332 126.19 247.814 126.275 248.245 126.487C248.689 126.687 249.047 127.038 249.255 127.478C249.463 127.918 249.507 128.418 249.379 128.888C249.104 129.754 248.542 130.5 247.785 131.003C245.042 132.884 241.889 134.082 238.589 134.497C236.983 134.774 235.332 134.63 233.798 134.078C233.042 133.773 232.376 133.281 231.861 132.648C231.347 132.016 231.001 131.264 230.855 130.462C230.734 129.657 230.915 128.837 231.364 128.159C231.814 127.481 232.499 126.995 233.287 126.794C233.687 126.716 234.101 126.748 234.486 126.884C234.87 127.021 235.211 127.258 235.473 127.57C235.954 128.176 236.223 128.922 236.24 129.695C236.274 130.443 236.112 131.186 235.77 131.851C235.406 132.477 234.911 133.018 234.319 133.435C233.175 134.183 231.904 134.716 230.569 135.008C228.066 135.672 225.46 136.142 223.09 135.274C221.972 134.87 220.988 134.162 220.25 133.23C219.535 132.338 219.171 131.215 219.228 130.073C219.336 129.016 219.822 128.032 220.597 127.304C220.948 126.952 221.381 126.693 221.858 126.551C222.334 126.408 222.838 126.386 223.325 126.487H223.427V126.589C223.459 128.594 222.729 130.537 221.384 132.025C220.428 133.144 219.19 133.987 217.798 134.467C216.938 134.764 216.027 134.882 215.121 134.814C214.508 134.722 214.201 134.64 214.201 134.64C215.392 134.835 216.612 134.722 217.747 134.313C219.094 133.821 220.289 132.982 221.21 131.882C222.473 130.421 223.144 128.54 223.09 126.61L223.202 126.742C222.764 126.662 222.312 126.689 221.886 126.823C221.461 126.956 221.074 127.192 220.761 127.509C220.054 128.188 219.616 129.098 219.524 130.073C219.371 132.117 221.016 134.16 223.162 134.896C225.307 135.631 227.913 135.253 230.395 134.579C231.676 134.293 232.895 133.777 233.992 133.057C234.524 132.678 234.97 132.19 235.3 131.626C235.604 131.034 235.745 130.371 235.708 129.705C235.694 129.041 235.465 128.399 235.054 127.877C234.847 127.626 234.577 127.436 234.271 127.327C233.966 127.217 233.636 127.192 233.317 127.253C232.651 127.434 232.074 127.853 231.697 128.432C231.32 129.01 231.17 129.707 231.274 130.39C231.411 131.104 231.725 131.772 232.187 132.332C232.649 132.893 233.245 133.328 233.92 133.598C235.374 134.114 236.937 134.245 238.457 133.976C241.666 133.568 244.732 132.398 247.397 130.564C248.05 130.132 248.542 129.496 248.796 128.755C248.893 128.402 248.86 128.026 248.702 127.696C248.545 127.366 248.273 127.104 247.938 126.957C247.6 126.795 247.224 126.73 246.851 126.768C246.478 126.805 246.122 126.945 245.823 127.172C245.536 127.443 245.305 127.769 245.146 128.13C244.986 128.491 244.9 128.881 244.893 129.276C244.879 129.928 245 130.576 245.248 131.179C245.495 131.782 245.865 132.328 246.334 132.781C247.268 133.703 248.444 134.341 249.726 134.62C252.301 135.213 254.947 134.497 257.42 133.792C258.653 133.514 259.835 133.045 260.924 132.403C261.429 132.078 261.853 131.641 262.16 131.126C262.437 130.607 262.577 130.027 262.569 129.44C262.579 128.869 262.383 128.314 262.017 127.877C261.842 127.678 261.617 127.53 261.366 127.445C261.115 127.361 260.847 127.344 260.587 127.396C260.06 127.577 259.597 127.907 259.254 128.346C258.911 128.785 258.703 129.314 258.656 129.869C258.647 130.423 258.775 130.972 259.028 131.465C259.281 131.959 259.651 132.382 260.107 132.699C261.005 133.387 262.057 133.846 263.172 134.038C265.309 134.432 267.512 134.237 269.547 133.476C271.457 132.781 273.166 131.627 274.523 130.114C275.182 129.45 275.642 128.615 275.851 127.703C275.971 127.296 275.932 126.859 275.743 126.48C275.553 126.101 275.227 125.808 274.83 125.659C274.439 125.542 274.021 125.544 273.632 125.666C273.242 125.789 272.898 126.024 272.643 126.344C272.413 126.666 272.252 127.031 272.169 127.418C272.087 127.805 272.085 128.204 272.163 128.592C272.329 129.321 272.661 130.003 273.132 130.584C273.603 131.165 274.201 131.63 274.881 131.943C277.056 133.078 279.435 133.772 281.88 133.986C283.427 134.111 284.983 134.057 286.518 133.823L287.713 133.598C287.821 133.575 287.931 133.558 288.04 133.547Z" fill="#240602"/>
<path d="M387.995 132.332C387.589 132.587 387.158 132.799 386.708 132.965C385.428 133.488 384.064 133.775 382.682 133.813C380.484 133.892 378.305 133.384 376.368 132.342C375.125 131.726 374.067 130.792 373.303 129.634C372.881 128.976 372.687 128.197 372.751 127.417C372.796 127.004 372.924 126.605 373.128 126.243C373.331 125.881 373.607 125.565 373.936 125.312C374.292 125.036 374.733 124.891 375.183 124.904C375.645 124.919 376.085 125.105 376.419 125.425C376.737 125.756 376.977 126.155 377.12 126.592C377.264 127.029 377.307 127.493 377.247 127.948C377.082 128.871 376.632 129.718 375.959 130.37C375.297 131.037 374.548 131.611 373.732 132.076C372.026 133.081 370.116 133.692 368.143 133.864C366.032 134.107 363.897 133.712 362.013 132.73C361.027 132.2 360.207 131.408 359.643 130.441C359.361 129.935 359.177 129.381 359.101 128.807C359.045 127.914 359.275 127.028 359.758 126.276C360.242 125.524 360.953 124.946 361.788 124.628C362.091 124.533 362.41 124.501 362.726 124.532C363.042 124.564 363.349 124.659 363.627 124.812C364.176 125.12 364.607 125.602 364.853 126.181C365.095 126.752 365.208 127.369 365.185 127.989C365.162 128.608 365.004 129.215 364.721 129.767C364.142 130.845 363.307 131.765 362.289 132.444C360.262 133.847 357.888 134.667 355.428 134.814C352.967 134.962 350.513 134.432 348.332 133.282C347.257 132.736 346.282 132.01 345.451 131.136C344.575 130.264 344.063 129.092 344.021 127.856C344.033 127.234 344.225 126.628 344.573 126.112C344.921 125.595 345.41 125.19 345.982 124.945C346.283 124.826 346.608 124.784 346.929 124.821C347.25 124.859 347.556 124.975 347.821 125.159C348.326 125.522 348.687 126.049 348.843 126.651C348.987 127.218 349 127.811 348.881 128.385C348.763 128.958 348.515 129.497 348.159 129.961C347.497 130.838 346.701 131.604 345.798 132.229C344.165 133.438 342.295 134.286 340.31 134.719C338.326 135.153 336.272 135.161 334.284 134.743C332.436 134.409 330.772 133.414 329.604 131.943C329.063 131.227 328.759 130.358 328.736 129.46C328.711 128.602 328.923 127.754 329.349 127.008C329.546 126.643 329.815 126.322 330.14 126.063C330.465 125.805 330.839 125.616 331.239 125.506C331.624 125.42 332.024 125.42 332.409 125.506C332.794 125.593 333.155 125.764 333.466 126.007C334.022 126.447 334.453 127.024 334.719 127.682C334.984 128.339 335.073 129.054 334.978 129.757C334.769 130.965 334.126 132.054 333.17 132.822C332.395 133.468 331.483 133.929 330.503 134.171C329.163 134.472 327.784 134.558 326.416 134.426L325.395 134.334C325.276 134.349 325.156 134.349 325.037 134.334C325.156 134.321 325.276 134.321 325.395 134.334H326.468C327.84 134.422 329.217 134.305 330.554 133.987C331.495 133.731 332.367 133.271 333.109 132.638C333.987 131.865 334.551 130.796 334.692 129.634C334.769 128.989 334.68 128.335 334.433 127.734C334.187 127.134 333.79 126.606 333.282 126.201C333.007 125.994 332.69 125.849 332.353 125.776C332.016 125.704 331.667 125.706 331.331 125.782C330.981 125.888 330.656 126.061 330.374 126.292C330.091 126.524 329.858 126.809 329.686 127.131C329.284 127.823 329.093 128.618 329.139 129.417C329.184 130.216 329.463 130.985 329.941 131.627C331.061 133.003 332.639 133.932 334.386 134.242C336.312 134.648 338.302 134.641 340.225 134.221C342.148 133.802 343.96 132.981 345.543 131.81C346.395 131.206 347.146 130.472 347.77 129.634C348.083 129.231 348.3 128.763 348.405 128.263C348.509 127.764 348.499 127.247 348.373 126.753C348.254 126.269 347.968 125.842 347.566 125.547C347.369 125.409 347.141 125.321 346.902 125.293C346.663 125.264 346.421 125.295 346.197 125.384C345.722 125.594 345.316 125.935 345.028 126.368C344.741 126.8 344.582 127.306 344.572 127.826C344.624 128.925 345.087 129.964 345.87 130.738C346.666 131.567 347.595 132.258 348.618 132.781C350.718 133.87 353.072 134.375 355.433 134.242C357.795 134.105 360.072 133.317 362.013 131.964C362.971 131.355 363.764 130.52 364.322 129.532C364.57 129.05 364.71 128.52 364.733 127.978C364.755 127.437 364.661 126.897 364.455 126.395C364.28 125.914 363.932 125.516 363.478 125.279C363.023 125.043 362.497 124.985 362.003 125.118C361.281 125.403 360.668 125.907 360.25 126.56C359.832 127.213 359.63 127.981 359.673 128.756C359.74 129.262 359.903 129.751 360.153 130.196C360.669 131.087 361.423 131.815 362.33 132.301C364.115 133.238 366.139 133.622 368.143 133.404C370.04 133.233 371.876 132.643 373.517 131.678C374.302 131.238 375.024 130.695 375.663 130.063C376.276 129.475 376.69 128.711 376.848 127.877C376.903 127.484 376.869 127.083 376.749 126.705C376.629 126.326 376.425 125.98 376.153 125.69C375.889 125.436 375.541 125.286 375.175 125.269C374.808 125.252 374.448 125.369 374.161 125.598C373.878 125.823 373.643 126.101 373.467 126.416C373.292 126.732 373.181 127.079 373.139 127.438C373.082 128.153 373.254 128.869 373.63 129.481C374.365 130.589 375.376 131.487 376.562 132.086C378.435 133.128 380.55 133.657 382.692 133.619C384.052 133.594 385.398 133.346 386.677 132.883C387.556 132.556 387.975 132.301 387.995 132.332Z" fill="#240602"/>
<path d="M293.005 177.46C292.883 177.539 292.753 177.604 292.617 177.654L291.442 178.186C290.42 178.645 288.878 179.32 286.865 180.076C284.417 181.021 281.876 181.706 279.284 182.119C277.66 182.357 276.02 182.456 274.38 182.416C272.528 182.451 270.684 182.175 268.924 181.598C267.937 181.263 267.045 180.695 266.323 179.943C265.601 179.191 265.07 178.276 264.775 177.276C264.624 176.733 264.583 176.165 264.653 175.606C264.723 175.046 264.904 174.506 265.184 174.017C265.467 173.497 265.87 173.052 266.361 172.721C266.852 172.391 267.416 172.183 268.004 172.117C268.625 172.106 269.235 172.28 269.757 172.616C270.279 172.953 270.69 173.437 270.936 174.007C271.494 175.139 271.586 176.445 271.192 177.644C270.764 178.837 270.027 179.895 269.056 180.709C268.085 181.533 267.006 182.221 265.848 182.753C263.461 183.994 260.703 184.317 258.093 183.662C256.744 183.246 255.531 182.474 254.582 181.428C253.633 180.382 252.982 179.099 252.699 177.716C252.576 177.002 252.576 176.273 252.699 175.56C252.797 174.811 253.101 174.103 253.577 173.516C253.804 173.198 254.097 172.932 254.435 172.736C254.773 172.54 255.15 172.42 255.539 172.382C255.953 172.375 256.359 172.498 256.698 172.735C257.038 172.971 257.294 173.309 257.429 173.7C257.625 174.436 257.658 175.205 257.528 175.954C257.397 176.704 257.106 177.417 256.673 178.043C255.919 179.327 254.951 180.474 253.812 181.435C251.572 183.352 248.709 184.385 245.761 184.34C242.813 184.295 239.982 183.175 237.802 181.189C236.754 180.215 236.039 178.935 235.759 177.532C235.619 176.824 235.665 176.092 235.892 175.407C236.14 174.735 236.551 174.135 237.087 173.659C237.617 173.174 238.284 172.863 238.998 172.771C239.363 172.718 239.736 172.747 240.089 172.854C240.442 172.962 240.767 173.146 241.041 173.394C241.52 173.894 241.856 174.513 242.016 175.186C242.176 175.86 242.153 176.563 241.95 177.225C241.551 178.468 240.82 179.577 239.835 180.433C238.928 181.278 237.931 182.022 236.862 182.651C234.818 183.859 232.547 184.631 230.19 184.919C227.988 185.209 225.748 185.01 223.631 184.336C222.624 183.999 221.703 183.444 220.934 182.712C220.189 182.003 219.679 181.083 219.473 180.076C219.251 179.115 219.344 178.109 219.738 177.205C219.927 176.769 220.222 176.388 220.597 176.097C220.972 175.806 221.415 175.614 221.884 175.539C222.324 175.472 222.774 175.499 223.203 175.617C223.633 175.735 224.032 175.942 224.377 176.224C224.702 176.495 224.946 176.849 225.085 177.249C225.224 177.649 225.251 178.078 225.164 178.492C224.993 179.247 224.58 179.925 223.989 180.423C223.467 180.88 222.886 181.265 222.262 181.568C221.184 182.101 220.059 182.532 218.9 182.855C217.305 183.312 215.656 183.556 213.996 183.58C213.42 183.601 212.842 183.577 212.27 183.509H212.709C213.005 183.509 213.434 183.509 213.996 183.509C215.638 183.435 217.264 183.16 218.839 182.691C219.979 182.349 221.087 181.908 222.15 181.373C222.75 181.075 223.306 180.697 223.805 180.25C224.325 179.78 224.683 179.158 224.826 178.472C224.9 178.108 224.873 177.732 224.749 177.383C224.624 177.034 224.408 176.725 224.121 176.49C223.808 176.244 223.449 176.064 223.064 175.962C222.679 175.86 222.278 175.838 221.884 175.897C221.471 175.967 221.084 176.141 220.757 176.402C220.43 176.663 220.174 177.002 220.014 177.389C219.658 178.22 219.579 179.145 219.789 180.025C220.039 180.97 220.532 181.833 221.221 182.528C221.91 183.222 222.769 183.722 223.713 183.979C225.769 184.626 227.943 184.808 230.078 184.51C233.586 184.071 236.866 182.533 239.447 180.117C240.371 179.32 241.056 178.284 241.429 177.123C241.605 176.549 241.626 175.938 241.49 175.353C241.354 174.768 241.065 174.229 240.653 173.792C240.173 173.427 239.574 173.253 238.973 173.306C238.372 173.359 237.812 173.635 237.404 174.078C236.946 174.496 236.595 175.018 236.382 175.601C236.186 176.204 236.147 176.848 236.27 177.47C236.546 178.768 237.221 179.947 238.201 180.842C240.291 182.738 243.001 183.806 245.823 183.846C248.645 183.885 251.384 182.893 253.526 181.057C254.625 180.138 255.555 179.035 256.275 177.797C256.648 177.212 256.914 176.565 257.061 175.887C257.226 175.237 257.205 174.553 257 173.915C256.906 173.622 256.722 173.365 256.475 173.182C256.228 172.999 255.929 172.898 255.621 172.893C255.307 172.931 255.006 173.034 254.734 173.196C254.463 173.358 254.229 173.575 254.047 173.833C253.664 174.372 253.398 174.984 253.266 175.632C253.134 176.28 253.139 176.948 253.281 177.593C253.548 178.882 254.155 180.077 255.038 181.052C255.922 182.028 257.051 182.749 258.308 183.141C260.796 183.766 263.426 183.461 265.705 182.283C267.933 181.21 270.068 179.657 270.814 177.44C271.172 176.356 271.091 175.175 270.589 174.15C270.386 173.657 270.04 173.236 269.595 172.941C269.151 172.647 268.629 172.491 268.096 172.495C267.578 172.555 267.083 172.739 266.651 173.03C266.219 173.322 265.863 173.713 265.613 174.17C265.357 174.611 265.191 175.098 265.126 175.603C265.061 176.109 265.098 176.622 265.235 177.113C265.508 178.055 266.003 178.918 266.679 179.629C267.354 180.34 268.191 180.879 269.118 181.2C270.836 181.777 272.639 182.061 274.451 182.038C276.073 182.09 277.697 182.005 279.304 181.782C281.88 181.406 284.41 180.766 286.855 179.871C288.898 179.146 290.41 178.502 291.463 178.083L292.658 177.593L293.005 177.46Z" fill="#240602"/>
<path d="M389.866 402.258C389.866 402.258 366.367 375.204 357.478 348.108C348.589 321.012 352.829 324.159 352.829 324.159C352.829 324.159 364.804 350.437 373.897 363.137C382.99 375.837 399.184 394.463 399.184 394.463L389.866 402.258Z" fill="#3AE675"/>
<path d="M394.587 328.399C394.429 328.124 394.18 327.911 393.883 327.799C393.585 327.687 393.258 327.682 392.957 327.784C392.656 327.887 392.4 328.091 392.234 328.362C392.067 328.633 392 328.953 392.043 329.268C393.474 338.78 396.569 361.084 396.457 375.551C396.294 394.341 396.457 401.605 396.457 401.605H406.214C406.214 401.605 404.477 362.78 402.26 350.908C400.748 342.611 397.458 333.385 394.587 328.399Z" fill="#3AE675"/>
<path d="M399.93 398.448C404.027 389.157 406.74 379.315 407.981 369.237C408.788 362.31 407.347 352.961 405.212 340.486C404.379 335.925 403.966 331.298 403.976 326.662C403.977 326.143 404.152 325.64 404.471 325.232C404.791 324.823 405.238 324.534 405.741 324.408C406.245 324.283 406.775 324.329 407.249 324.539C407.724 324.749 408.114 325.112 408.359 325.569C409.534 327.673 412.957 334.866 413.825 339.382C416.195 351.704 418.872 357.865 416.829 369.543C414.785 381.222 407.235 399.234 407.235 399.234L399.93 398.448Z" fill="#3AE675"/>
<path d="M408.737 399.235C408.737 399.235 434.555 343.766 436.323 335.531C438.091 327.296 444.19 308.343 444.905 309.416C445.621 310.489 446.704 320.501 442.045 331.955C437.386 343.408 417.523 400.931 417.523 400.931H408.706" fill="#3AE675"/>
<path d="M397.1 396.752C396.844 396.61 396.601 396.446 396.375 396.261C395.915 395.914 395.22 395.424 394.331 394.729C391.917 392.803 389.602 390.757 387.394 388.599C380.129 381.436 373.833 373.354 368.666 364.558C363.522 355.762 359.241 346.489 355.884 336.869C354.586 333.181 353.646 330.167 353.023 328.072C352.717 327.051 352.492 326.213 352.339 325.651C352.251 325.374 352.186 325.09 352.145 324.803C352.272 325.065 352.374 325.339 352.451 325.62L353.228 328.011C353.912 330.054 354.913 333.12 356.293 336.736C359.745 346.304 364.061 355.537 369.187 364.323C374.334 373.078 380.557 381.154 387.71 388.364C390.479 391.112 392.819 393.196 394.515 394.596C395.332 395.311 396.007 395.822 396.446 396.2C396.677 396.369 396.895 396.553 397.1 396.752V396.752Z" fill="#263238"/>
<path d="M399.92 370.147C399.805 369.608 399.73 369.062 399.695 368.512L399.215 364.068C398.806 360.318 398.193 355.138 397.253 349.457C396.313 343.776 395.322 338.647 394.536 334.959L393.596 330.586C393.447 330.059 393.351 329.518 393.31 328.972C393.511 329.48 393.675 330.002 393.8 330.535C394.096 331.557 394.474 333.038 394.914 334.877C395.803 338.555 396.886 343.664 397.805 349.365C398.725 355.066 399.297 360.267 399.603 364.027C399.757 365.917 399.859 367.439 399.91 368.502C399.962 369.049 399.965 369.599 399.92 370.147V370.147Z" fill="#263238"/>
<path d="M405.969 325.13C406.096 325.353 406.199 325.59 406.275 325.835C406.469 326.356 406.725 327.04 407.052 327.878C407.379 328.716 407.787 329.871 408.155 331.178C408.523 332.486 409.034 333.947 409.412 335.623L410.056 338.228C410.27 339.138 410.423 340.098 410.618 341.079C411.036 343.051 411.302 345.166 411.639 347.434C412.819 357.202 412.474 367.095 410.618 376.757C410.137 378.964 409.729 381.079 409.167 383.01C408.901 383.981 408.676 384.931 408.4 385.82C408.125 386.709 407.838 387.567 407.573 388.374C407.082 390.019 406.48 391.439 405.999 392.716C405.519 393.993 405.07 395.066 404.661 395.935L403.741 397.978C403.648 398.216 403.528 398.442 403.384 398.652C403.452 398.405 403.537 398.163 403.639 397.927C403.854 397.416 404.119 396.732 404.467 395.884C404.814 395.036 405.274 393.922 405.713 392.645C406.153 391.368 406.735 389.927 407.205 388.292C407.45 387.475 407.716 386.617 407.992 385.738C408.268 384.859 408.472 383.899 408.727 382.928C409.269 380.997 409.657 378.892 410.117 376.696C411.913 367.075 412.258 357.239 411.139 347.516C410.842 345.288 410.597 343.163 410.199 341.201C410.015 340.18 409.872 339.26 409.667 338.351C409.463 337.442 409.259 336.573 409.065 335.746C408.717 334.07 408.247 332.599 407.89 331.301C407.532 330.003 407.185 328.88 406.868 327.97L406.194 325.927C406.088 325.671 406.012 325.403 405.969 325.13V325.13Z" fill="#263238"/>
<path d="M444.641 310.529C444.645 310.611 444.645 310.693 444.641 310.775C444.641 310.969 444.569 311.204 444.518 311.5C444.406 312.123 444.262 313.063 444.007 314.259C443.517 316.649 442.679 320.082 441.391 324.241C440.104 328.399 438.326 333.303 436.283 338.667C434.239 344.031 431.777 349.906 429.488 356.118C427.2 362.33 425.402 368.379 423.685 373.916C421.969 379.454 420.426 384.369 418.904 388.455C417.715 391.691 416.351 394.86 414.817 397.947C414.285 399.04 413.795 399.858 413.499 400.43L413.141 401.063C413.103 401.138 413.054 401.206 412.998 401.268L413.09 401.033C413.182 400.859 413.284 400.634 413.407 400.369C413.683 399.796 414.122 398.959 414.623 397.845C415.644 395.648 417.054 392.42 418.525 388.323C419.997 384.226 421.591 379.28 423.185 373.763C424.778 368.246 426.628 362.167 428.957 355.924C431.287 349.681 433.688 343.837 435.803 338.483C437.918 333.13 439.716 328.266 441.044 324.128C442.372 319.99 443.261 316.578 443.823 314.207C444.109 313.033 444.283 312.103 444.436 311.48C444.497 311.193 444.559 310.958 444.6 310.764C444.601 310.684 444.615 310.605 444.641 310.529V310.529Z" fill="#263238"/>
<path d="M365.039 298.269C364.681 297.933 364.223 297.724 363.735 297.675C363.246 297.626 362.756 297.74 362.339 297.998C361.922 298.257 361.602 298.646 361.429 299.105C361.255 299.564 361.239 300.068 361.381 300.537C362.261 303.393 363.343 306.183 364.62 308.885C368.165 316.425 378.597 343.48 383.47 358.346C388.344 373.212 395.23 400.931 395.23 400.931L405.652 399.235C405.652 399.235 396.119 353.687 386.801 337.268C379.312 324.088 371.833 305.023 365.039 298.269Z" fill="#3AE675"/>
<path d="M386.321 367.633C386.551 368.029 386.732 368.451 386.863 368.89C387.169 369.707 387.588 370.933 388.068 372.384C389.029 375.357 390.194 379.536 391.379 384.123C392.564 388.711 393.545 392.93 394.229 395.975C394.546 397.416 394.802 398.621 395.016 399.582C395.138 400.022 395.21 400.474 395.231 400.93C395.041 400.515 394.897 400.08 394.802 399.633C394.556 398.683 394.229 397.487 393.851 396.067C393.054 392.93 392.002 388.813 390.847 384.256C389.693 379.699 388.549 375.49 387.69 372.496L386.669 368.951C386.511 368.524 386.395 368.082 386.321 367.633V367.633Z" fill="#263238"/>
<path d="M400.461 400.083C400.428 399.995 400.407 399.902 400.4 399.807C400.4 399.593 400.338 399.317 400.287 398.98C400.175 398.265 400.083 397.192 399.858 395.833C399.48 393.095 398.836 389.151 397.672 384.339C396.342 378.705 394.715 373.146 392.798 367.685C390.663 361.554 387.976 354.842 384.941 347.945C378.811 334.152 372.681 321.922 368.665 312.87C366.622 308.364 365.059 304.696 364.016 302.111C363.485 300.834 363.107 299.833 362.841 299.148C362.729 298.831 362.637 298.576 362.555 298.372C362.515 298.284 362.488 298.191 362.474 298.096C362.527 298.176 362.572 298.261 362.606 298.351L362.944 299.107C363.25 299.812 363.679 300.793 364.211 302.029C365.314 304.573 366.939 308.221 369.013 312.716C373.099 321.708 379.301 333.907 385.442 347.72C388.507 354.637 391.163 361.319 393.278 367.521C395.171 373.005 396.761 378.588 398.04 384.247C398.914 388.062 399.596 391.919 400.083 395.802C400.267 397.171 400.338 398.244 400.41 398.97C400.41 399.31 400.43 399.586 400.471 399.797C400.481 399.893 400.478 399.989 400.461 400.083Z" fill="#263238"/>
<path d="M405.652 399.235C405.482 398.664 405.362 398.08 405.294 397.488C405.09 396.262 404.814 394.648 404.487 392.696C403.772 388.609 402.668 383.102 401.095 377.043C399.522 370.985 397.774 365.6 396.426 361.718L394.791 357.14C394.564 356.59 394.38 356.023 394.239 355.444C394.539 355.962 394.792 356.506 394.995 357.069C395.445 358.091 396.068 359.664 396.794 361.585C398.676 366.604 400.29 371.719 401.626 376.911C402.973 382.094 404.058 387.342 404.875 392.635C405.172 394.678 405.396 396.313 405.509 397.457C405.596 398.046 405.644 398.64 405.652 399.235V399.235Z" fill="#263238"/>
<path d="M427.036 397.743H386.361V447.296H427.036V397.743Z" fill="#240602"/>
<g opacity="0.3">
<path opacity="0.3" d="M427.036 397.743H386.361V447.296H427.036V397.743Z" fill="black"/>
</g>
<path d="M414.061 397.743H377.974V447.296H414.061V397.743Z" fill="#240602"/>
<path d="M83.5351 135.01L82.3806 228.109C82.1865 243.935 85.129 267.23 110.171 266.403C131.852 264.042 137.604 243.526 137.757 228.752C137.839 221.744 137.921 215.899 137.972 215.184C137.972 215.184 161.696 213.243 163.699 189.805C164.669 178.484 164.721 154.995 164.608 133.743C164.519 122.736 160.289 112.166 152.759 104.137C145.23 96.108 134.953 91.208 123.975 90.4124L121.706 90.2387C97.2057 89.8913 83.2184 110.499 83.5351 135.01Z" fill="#FFBE9D"/>
<path d="M137.982 215.184C137.982 215.184 123.137 214.97 108.107 203.945C108.107 203.945 114.299 221.621 137.86 221.212L137.982 215.184Z" fill="#EB996E"/>
<path d="M124.547 143.347C124.088 143.827 121.38 141.641 117.446 141.539C113.513 141.437 110.591 143.357 110.182 142.857C109.978 142.632 110.458 141.763 111.745 140.864C113.466 139.71 115.509 139.131 117.579 139.209C119.628 139.261 121.604 139.979 123.209 141.253C124.394 142.244 124.782 143.143 124.547 143.347Z" fill="#263238"/>
<path d="M124.435 151.47C124.38 152.296 124.006 153.068 123.392 153.623C122.778 154.178 121.972 154.472 121.145 154.444C120.332 154.444 119.553 154.121 118.978 153.546C118.403 152.971 118.08 152.191 118.08 151.378C118.133 150.554 118.505 149.782 119.117 149.227C119.729 148.672 120.534 148.377 121.36 148.405C121.763 148.404 122.163 148.482 122.536 148.636C122.909 148.789 123.248 149.015 123.534 149.299C123.819 149.584 124.046 149.922 124.201 150.295C124.356 150.668 124.435 151.067 124.435 151.47Z" fill="#263238"/>
<path d="M134.438 170.658C134.438 170.454 136.706 170.229 140.363 170.035C141.293 170.035 142.182 169.881 142.407 169.268C142.556 168.325 142.414 167.359 141.998 166.5L139.699 159.266C136.634 149.049 134.519 140.609 134.928 140.487C135.337 140.364 138.157 148.589 141.201 158.878C141.937 161.411 142.632 163.812 143.245 166.122C143.521 167.194 144.031 168.42 143.459 169.769C143.303 170.085 143.076 170.361 142.796 170.575C142.516 170.79 142.191 170.937 141.845 171.005C141.327 171.106 140.798 171.14 140.271 171.107C136.655 171.016 134.438 170.872 134.438 170.658Z" fill="#263238"/>
<path d="M122.881 128.615C122.503 129.493 119.356 128.829 115.596 129.023C111.836 129.217 108.73 130.045 108.301 129.217C108.107 128.809 108.689 128.012 109.967 127.235C111.651 126.274 113.545 125.741 115.484 125.682C117.409 125.58 119.33 125.96 121.073 126.786C122.401 127.419 123.045 128.175 122.881 128.615Z" fill="#263238"/>
<path d="M160.164 135.859C159.755 136.574 156.69 135.787 153.012 135.675C149.334 135.562 146.218 136.032 145.86 135.286C145.696 134.939 146.309 134.265 147.597 133.733C149.343 133.04 151.217 132.73 153.094 132.824C154.987 132.883 156.847 133.342 158.55 134.173C159.755 134.837 160.348 135.521 160.164 135.859Z" fill="#263238"/>
<path d="M84.1896 152.522C83.8014 152.318 68.4143 146.576 67.7604 162.647C67.1065 178.719 83.3518 176.073 83.4233 175.613C83.4948 175.153 84.1896 152.522 84.1896 152.522Z" fill="#FFBE9D"/>
<path d="M78.7641 169.319C78.6926 169.268 78.4678 169.503 77.9876 169.697C77.331 169.956 76.6008 169.956 75.9442 169.697C74.2686 169.003 72.9506 166.254 72.9914 163.352C73.0085 161.973 73.3331 160.616 73.9416 159.378C74.1135 158.884 74.4035 158.44 74.7864 158.084C75.1693 157.728 75.6334 157.47 76.1383 157.335C76.4618 157.261 76.801 157.303 77.0962 157.454C77.3915 157.606 77.6239 157.856 77.7526 158.162C77.957 158.622 77.8344 158.939 77.9263 158.969C78.0183 159 78.2839 158.714 78.1715 158.05C78.1005 157.652 77.8949 157.292 77.5892 157.028C77.1597 156.676 76.6104 156.504 76.0566 156.548C75.3845 156.649 74.7495 156.921 74.2128 157.337C73.676 157.754 73.2554 158.302 72.9914 158.928C72.2567 160.293 71.8608 161.813 71.8369 163.363C71.8369 166.612 73.349 169.708 75.6377 170.515C76.0654 170.655 76.5187 170.699 76.9655 170.645C77.4122 170.59 77.8414 170.437 78.2226 170.198C78.7131 169.708 78.8152 169.35 78.7641 169.319Z" fill="#EB996E"/>
<path d="M130.596 181.795C130.77 181.386 127.623 180.446 125.406 177.483C124.483 176.19 123.735 174.782 123.178 173.294C122.708 172.119 122.351 171.394 122.157 171.445C121.962 171.496 122.024 172.283 122.289 173.56C122.623 175.256 123.32 176.859 124.333 178.26C125.383 179.659 126.796 180.744 128.42 181.396C129.717 181.897 130.545 181.928 130.596 181.795Z" fill="#263238"/>
<path d="M160.347 144.829C159.877 145.299 157.17 143.122 153.195 143.02C149.221 142.918 146.34 144.839 145.921 144.338C145.716 144.113 146.207 143.245 147.484 142.346C149.205 141.192 151.247 140.612 153.318 140.691C155.37 140.743 157.349 141.46 158.958 142.734C160.184 143.725 160.572 144.614 160.347 144.829Z" fill="#263238"/>
<path d="M159.705 152.614C159.649 153.44 159.275 154.211 158.661 154.766C158.047 155.321 157.242 155.615 156.415 155.587C155.602 155.587 154.822 155.264 154.247 154.689C153.673 154.114 153.35 153.335 153.35 152.522C153.405 151.696 153.779 150.924 154.393 150.37C155.007 149.815 155.812 149.52 156.64 149.549C157.452 149.549 158.232 149.872 158.807 150.447C159.382 151.021 159.705 151.801 159.705 152.614Z" fill="#263238"/>
<path d="M180.966 102.622C179.369 100.028 176.893 98.0953 173.989 97.1762C171.085 96.2571 167.948 96.413 165.149 97.6154C165.868 93.8955 165.35 90.0427 163.676 86.6442C162.001 83.2457 159.261 80.4879 155.874 78.7912C152.486 77.0946 148.637 76.5521 144.912 77.2464C141.188 77.9407 137.792 79.8338 135.244 82.6371C135.041 81.6431 134.627 80.7043 134.029 79.8845C133.432 79.0647 132.665 78.3832 131.78 77.8861C130.008 76.8982 128.041 76.3089 126.018 76.1594C121.222 75.6274 116.37 76.3626 111.947 78.2917C107.524 80.2208 103.685 83.2762 100.812 87.1531C96.1387 86.5985 91.4006 87.1501 86.9796 88.7633C82.5587 90.3766 78.5789 93.0063 75.3611 96.4405C67.8107 104.808 66.3803 124.19 74.6561 140.936L76.5974 151.429C79.1926 151.429 81.5629 151.613 83.167 153.043C85.3433 154.995 86.3139 158.673 89.9206 157.284C91.7596 156.568 93.4353 152.716 94.0074 150.847C98.0876 138.372 99.4395 125.166 97.9717 112.124C100.548 109.379 103.628 107.156 107.044 105.575L106.769 105.83C113.318 103.552 120.725 101.314 126.937 104.389C131.76 106.77 134.6 111.776 138.176 115.761C141.504 119.447 145.543 122.42 150.05 124.503C154.558 126.585 159.44 127.734 164.404 127.879C164.751 134.479 164.199 143.807 164.547 150.356L170.197 139.853C170.635 139.098 171.034 138.32 171.392 137.524L171.515 137.278C172.536 136.451 173.292 134.939 175.009 132.977C176.649 131.049 177.728 128.709 178.13 126.21C178.531 123.711 178.24 121.15 177.287 118.806C179.743 117.001 181.467 114.371 182.142 111.399C182.818 108.427 182.4 105.311 180.966 102.622Z" fill="#263238"/>
<path d="M171.352 102.867C171.352 102.867 171.413 102.98 171.474 103.215C171.557 103.549 171.605 103.892 171.617 104.236C171.669 105.552 171.347 106.856 170.687 107.996C170.22 108.783 169.61 109.476 168.889 110.04C168.032 110.695 167.024 111.124 165.957 111.286C164.717 111.481 163.447 111.351 162.273 110.909C161.098 110.467 160.058 109.727 159.254 108.762L159.653 108.425C160.04 108.849 160.34 109.345 160.534 109.885C160.729 110.426 160.815 110.999 160.787 111.572C160.775 112.339 160.609 113.095 160.301 113.797C159.992 114.499 159.546 115.132 158.989 115.659C157.932 116.599 156.598 117.169 155.188 117.284C152.844 117.454 150.513 116.812 148.588 115.465C147.305 114.594 146.119 113.587 145.053 112.461C144.644 112.071 144.268 111.647 143.929 111.194C144.378 111.537 144.802 111.913 145.196 112.318C146.307 113.368 147.51 114.315 148.792 115.148C150.661 116.397 152.897 116.977 155.137 116.793C156.436 116.675 157.664 116.145 158.641 115.281C159.641 114.314 160.221 112.993 160.256 111.603C160.293 110.578 159.926 109.58 159.234 108.824L159.632 108.476C160.377 109.373 161.339 110.063 162.427 110.482C163.514 110.9 164.691 111.033 165.844 110.867C166.776 110.727 167.664 110.378 168.442 109.847C169.22 109.317 169.869 108.618 170.34 107.802C170.992 106.718 171.344 105.481 171.362 104.216C171.443 103.358 171.311 102.877 171.352 102.867Z" fill="#455A64"/>
<path d="M151.244 85.2529C151.244 85.2529 151.367 85.2529 151.591 85.4062C151.901 85.586 152.198 85.7874 152.48 86.009C153.547 86.8321 154.385 87.9157 154.912 89.1559C155.302 90.0928 155.455 91.1111 155.359 92.1213C155.263 93.1315 154.92 94.1025 154.36 94.949C153.684 95.9836 152.633 96.7159 151.428 96.9924C150.786 97.1314 150.123 97.1388 149.479 97.0141C148.834 96.8894 148.222 96.6352 147.678 96.267C147.342 96.013 147.043 95.7139 146.789 95.3781L147.249 95.1125C147.481 95.6908 147.59 96.3111 147.569 96.9338C147.548 97.5566 147.397 98.1681 147.126 98.7293C146.656 99.7757 145.831 100.622 144.797 101.12C143.939 101.519 143.005 101.725 142.059 101.725C141.113 101.725 140.178 101.519 139.321 101.12C138.191 100.598 137.184 99.8426 136.368 98.903C136.05 98.5784 135.784 98.2061 135.581 97.7996C135.581 97.7996 135.908 98.1572 136.511 98.76C137.354 99.6248 138.357 100.319 139.464 100.803C140.273 101.151 141.147 101.322 142.028 101.306C142.908 101.29 143.776 101.088 144.572 100.711C145.481 100.239 146.202 99.4718 146.616 98.5352C146.849 98.039 146.979 97.5002 146.997 96.9519C147.014 96.4037 146.919 95.8576 146.718 95.3475L145.859 93.3756L147.178 95.092C147.393 95.3812 147.652 95.6361 147.944 95.8481C148.426 96.1768 148.97 96.4042 149.542 96.5166C150.115 96.629 150.704 96.624 151.275 96.502C152.346 96.2693 153.286 95.6326 153.9 94.7242C154.428 93.944 154.758 93.0474 154.863 92.1113C154.968 91.1753 154.845 90.2278 154.503 89.35C154.027 88.1468 153.271 87.0748 152.296 86.2236C151.663 85.5492 151.213 85.2938 151.244 85.2529Z" fill="#455A64"/>
<path d="M287.694 202.443L250.555 230.786C250.034 231.185 249.601 231.687 249.282 232.26C248.963 232.833 248.764 233.465 248.698 234.118C248.632 234.77 248.7 235.429 248.898 236.055C249.096 236.68 249.42 237.258 249.85 237.754V237.754C250.653 238.683 251.783 239.267 253.006 239.387C254.228 239.507 255.45 239.153 256.419 238.397L293.201 209.789L298.177 199.971L287.694 202.443Z" fill="#240602"/>
<path opacity="0.5" d="M293.415 201.085L296.041 204.15L293.201 209.79C292.859 209.826 292.514 209.784 292.191 209.666C291.868 209.549 291.577 209.359 291.338 209.112C291.1 208.864 290.921 208.566 290.815 208.239C290.71 207.912 290.68 207.566 290.728 207.225C290.392 207.272 290.05 207.234 289.733 207.115C289.415 206.997 289.132 206.801 288.909 206.545C288.686 206.29 288.53 205.983 288.455 205.652C288.381 205.321 288.389 204.977 288.481 204.651C288.481 204.651 286.55 204.477 287.643 202.444L293.415 201.085Z" fill="white"/>
<path d="M250.555 230.755L256.644 238.193L258.688 236.609L252.854 229.008L250.555 230.755Z" fill="#263238"/>
<path d="M247.847 301.754L246.509 301.509L273.829 253.754L269.497 239.981C269.497 239.981 264.491 220.375 268.66 215.368C268.66 215.368 277.783 204.62 280.746 204.773C283.709 204.926 286.07 205.509 286.662 207.736C286.662 207.736 291.699 207.143 293.027 208.758C293.916 209.875 294.709 211.064 295.398 212.313C295.398 212.313 300.874 211.864 302.356 216.605C302.356 216.605 307.536 219.271 307.985 223.113C308.435 226.955 306.964 244.875 305.319 249.463C303.674 254.05 297.615 263.675 295.847 277.887C294.08 292.099 287.806 301.325 282.238 322.086L267.127 328.063L247.847 301.754Z" fill="#FFBE9D"/>
<path d="M286.407 207.43C286.519 207.583 284.639 208.829 283.219 211.128C281.799 213.427 281.462 215.634 281.268 215.603C281.286 213.903 281.773 212.241 282.674 210.799C283.575 209.357 284.856 208.192 286.376 207.43H286.407Z" fill="#EB996E"/>
<path d="M295.102 212.312C295.204 212.476 293.406 213.559 291.986 215.623C290.565 217.687 290.116 219.71 289.942 219.71C289.768 219.71 289.942 217.472 291.485 215.296C292.321 213.923 293.595 212.872 295.102 212.312V212.312Z" fill="#EB996E"/>
<path d="M302.07 216.481C302.182 216.624 300.823 217.82 299.577 219.618C298.33 221.416 297.656 223.102 297.482 223.041C297.638 221.658 298.188 220.35 299.066 219.271C299.774 218.068 300.818 217.098 302.07 216.481V216.481Z" fill="#EB996E"/>
<path d="M276.455 218.034C275.464 217.712 274.432 217.536 273.39 217.513C272.368 217.673 271.375 217.986 270.447 218.443C270.396 218.443 270.59 218.055 271.091 217.687C271.756 217.226 272.535 216.954 273.342 216.9C274.15 216.846 274.958 217.012 275.679 217.381C276.21 217.677 276.455 217.973 276.455 218.034Z" fill="#EB996E"/>
<path d="M287.306 224.849C286.687 223.846 285.926 222.938 285.048 222.152C283.505 220.946 281.829 220.875 281.85 220.691C281.87 220.507 282.269 220.517 282.953 220.599C283.852 220.737 284.702 221.099 285.425 221.65C286.148 222.202 286.721 222.926 287.091 223.756C287.357 224.4 287.377 224.829 287.306 224.849Z" fill="#EB996E"/>
<path d="M298.126 227.159C297.993 227.291 296.798 225.943 294.765 225.411C293.52 225.172 292.247 225.11 290.984 225.228C290.984 225.156 291.342 224.911 292.067 224.737C293.014 224.538 293.995 224.565 294.929 224.817C295.863 225.07 296.724 225.539 297.442 226.188C297.973 226.699 298.177 227.118 298.126 227.159Z" fill="#EB996E"/>
<path d="M22.4674 279.256C22.4674 279.256 5.70109 374.357 6.52868 383.256C7.35627 392.155 11.7905 406.296 21.8544 408.717C28.2464 410.146 34.875 410.146 41.267 408.717L29.2005 291.905L22.4674 279.256Z" fill="#240602"/>
<path d="M71.4997 230.193C71.4997 230.193 51.4537 244.497 46.9785 248.635C28.4447 266.158 24.5724 273.33 22.4574 279.287C20.3425 285.243 35.331 422.868 35.331 422.868L38.3961 446.93L179.056 447.287V324.385L157.937 237.877L144.93 234.178L142.304 223.869C142.304 223.869 126.151 211.935 99.5049 211.608C91.3312 211.496 79.704 214.725 73.2264 219.782L71.4997 230.193Z" fill="#240602"/>
<path d="M142.161 238.234C142.161 238.234 156.619 237.59 157.896 237.876C162.35 238.898 174.58 250.137 188.547 263.95C201.829 277.13 228.006 304.563 228.006 304.563C228.006 304.563 232.706 299.823 238.07 306.157L258.718 276.119C258.718 276.119 289.738 279.92 294.56 303.327C294.56 303.327 285.058 321.473 277.273 334.438C277.273 334.438 248.471 382.244 225.717 373.58C204.935 365.652 178.871 344.523 175.204 340.007L144.552 318.173C144.552 318.173 123.587 278.203 132.853 258.218L142.161 238.234Z" fill="#240602"/>
<path d="M144.888 234.178C144.638 234.155 144.391 234.104 144.153 234.025L142.109 233.473C140.301 233.013 137.665 232.38 134.375 231.756C125.793 230.17 117.124 229.102 108.413 228.558C99.708 227.94 90.9688 227.967 82.2676 228.64C78.9266 228.926 76.2497 229.345 74.4106 229.662L72.2957 230.081C72.0533 230.151 71.8021 230.185 71.5498 230.183C71.7796 230.083 72.0193 230.007 72.265 229.958L74.3595 229.427C76.9564 228.866 79.5831 228.454 82.2267 228.191C90.9476 227.391 99.7193 227.306 108.454 227.935C117.182 228.474 125.863 229.607 134.436 231.327C137.726 232.012 140.352 232.707 142.16 233.248L144.204 233.912C144.442 233.974 144.671 234.063 144.888 234.178V234.178Z" fill="#263238"/>
<path d="M90.1055 227.025C89.9318 227.025 89.4721 224.696 89.0838 221.763C88.6956 218.831 88.481 216.451 88.6547 216.42C89.1907 218.13 89.5334 219.895 89.6764 221.682C90.0851 224.655 90.2792 227.005 90.1055 227.025Z" fill="#263238"/>
<path d="M95.3564 226.576C93.9596 223.202 93.7014 219.464 94.6207 215.93C94.8046 215.93 94.5288 218.341 94.7331 221.273C94.9375 224.206 95.53 226.525 95.3564 226.576Z" fill="#263238"/>
<g opacity="0.3">
<path opacity="0.3" d="M71.959 230.08C93.9667 233.973 116.281 230.08 139.576 232.87C117.098 228.211 93.6602 226.004 71.959 230.08" fill="black"/>
</g>
<g opacity="0.3">
<path opacity="0.3" d="M33.2863 408.901C20.9032 379.894 22.3744 347.118 24.0909 315.639L33.2863 408.901Z" fill="black"/>
</g>
<path d="M22.468 299.986C22.5015 300.106 22.522 300.23 22.5293 300.354C22.5293 300.63 22.611 300.988 22.6621 301.427C22.7643 302.449 22.9175 303.808 23.1014 305.585C23.459 309.233 23.9801 314.444 24.6136 320.911C25.8703 333.805 27.5868 351.634 29.6404 371.302C31.6941 390.97 33.7273 408.758 35.3825 421.611C36.1896 428.038 36.8844 433.238 37.4259 436.825C37.6609 438.592 37.8448 439.982 37.9674 440.962C38.0287 441.412 38.0696 441.77 38.1002 442.045C38.1113 442.168 38.1113 442.291 38.1002 442.413C38.0587 442.298 38.0313 442.178 38.0185 442.056L37.8243 440.983C37.6711 439.961 37.4463 438.623 37.1705 436.896C36.6085 433.31 35.8422 428.119 34.9738 421.703C33.2266 408.86 31.1015 391.052 29.0478 371.394C26.9942 351.736 25.3492 333.887 24.2049 320.983C23.6532 314.556 23.1832 309.335 22.8869 305.657C22.7541 303.879 22.6417 302.49 22.5702 301.498C22.5702 301.049 22.5702 300.691 22.4986 300.405C22.4712 300.267 22.4609 300.127 22.468 299.986Z" fill="#263238"/>
<path d="M117.691 284.425C117.393 284.471 117.092 284.488 116.792 284.477H114.186C111.939 284.477 108.669 284.477 104.644 284.589C96.5822 284.773 85.4558 285.365 73.2463 286.806C61.0368 288.247 50.0738 290.331 42.1964 292.088C38.2526 292.936 35.0444 293.672 32.8886 294.213L30.3547 294.806C30.0635 294.885 29.7662 294.94 29.4658 294.97C29.7427 294.849 30.0299 294.753 30.3241 294.684L32.8273 293.979C35.0035 293.365 38.1708 292.569 42.1044 291.659C62.6204 286.944 83.5837 284.447 104.633 284.211C108.72 284.211 111.939 284.211 114.197 284.293L116.792 284.395C117.092 284.381 117.392 284.391 117.691 284.425V284.425Z" fill="#263238"/>
<path d="M63.6834 315.22C63.5097 315.22 63.8367 302.05 64.3986 285.815C64.9605 269.58 65.5736 256.41 65.7473 256.42C65.921 256.43 65.594 269.59 65.0218 285.835C64.4497 302.08 63.8469 315.23 63.6834 315.22Z" fill="#263238"/>
<path d="M135.561 313.596C135.37 313.331 135.196 313.055 135.04 312.768C134.679 312.162 134.209 311.355 133.63 310.347L128.44 301.427C125.814 297.034 123.633 292.389 121.931 287.563C120.988 284.679 120.338 281.708 119.99 278.694C119.693 275.452 119.693 272.189 119.99 268.947C120.421 262.664 121.993 256.511 124.629 250.791C125.839 248.314 127.383 246.015 129.216 243.956C130.829 242.181 132.678 240.637 134.713 239.368C137.643 237.484 140.997 236.361 144.47 236.099C145.734 235.993 147.007 236.065 148.251 236.313C146.998 236.246 145.743 236.246 144.491 236.313C141.083 236.657 137.808 237.821 134.948 239.705C132.964 240.978 131.163 242.514 129.594 244.273C127.815 246.309 126.32 248.577 125.15 251.016C122.57 256.682 121.03 262.766 120.603 268.978C120.317 272.176 120.317 275.394 120.603 278.592C120.941 281.565 121.571 284.498 122.483 287.348C124.153 292.151 126.278 296.783 128.828 301.182L133.845 310.194L135.163 312.676C135.323 312.97 135.456 313.278 135.561 313.596Z" fill="#263238"/>
<g opacity="0.3">
<path opacity="0.3" d="M31.7438 294.858C40.6327 294.397 49.471 293.232 58.1756 291.374C57.1016 295.219 56.6023 299.203 56.6941 303.195C59.4543 300.085 61.4641 296.384 62.5689 292.375C62.8853 294.556 63.6394 296.651 64.7859 298.533C65.9324 300.415 67.4477 302.046 69.2407 303.328C70.1165 299.375 70.3168 295.302 69.8333 291.282C82.9862 289.701 96.0505 287.539 109.026 284.794C82.7629 284.157 56.5503 287.418 31.2432 294.469" fill="black"/>
</g>
<path d="M200.849 360.41C200.634 360.317 200.431 360.196 200.246 360.052L198.56 358.929C197.11 357.907 195.025 356.507 192.43 354.699C187.321 351.102 180.261 346.045 172.588 340.323C164.915 334.601 158.06 329.289 153.176 325.396C150.724 323.455 148.742 321.861 147.383 320.747L145.83 319.46C145.639 319.319 145.464 319.158 145.309 318.979C145.517 319.095 145.716 319.228 145.901 319.378L147.516 320.584L153.411 325.1C158.387 328.921 165.273 334.172 172.946 339.894C180.619 345.616 187.567 350.714 192.675 354.413L198.683 358.785L200.307 359.981C200.499 360.109 200.68 360.253 200.849 360.41V360.41Z" fill="#263238"/>
<path d="M235.168 329.065C235.076 329.065 235.168 327.512 234.953 325.049C234.49 318.594 232.546 312.333 229.273 306.75C228.016 304.615 227.096 303.379 227.168 303.317C227.445 303.557 227.689 303.832 227.893 304.135C228.5 304.912 229.066 305.72 229.589 306.556C233.091 312.103 235.072 318.474 235.331 325.029C235.386 326.012 235.386 326.998 235.331 327.982C235.325 328.348 235.27 328.712 235.168 329.065V329.065Z" fill="#263238"/>
<path d="M241.503 326.745C241.532 325.692 241.617 324.642 241.758 323.598C241.949 321.079 241.901 318.547 241.615 316.037C241.325 313.527 240.795 311.05 240.032 308.64C239.449 306.781 239.01 305.667 239.071 305.626C239.248 305.852 239.389 306.104 239.49 306.372C239.828 307.071 240.128 307.787 240.389 308.517C242.145 313.352 242.74 318.532 242.126 323.639C242.003 324.609 241.871 325.396 241.748 325.927C241.705 326.21 241.622 326.485 241.503 326.745V326.745Z" fill="#263238"/>
<path d="M289.482 313.596C289.482 313.596 289.482 313.402 289.247 313.208C289.071 313.097 288.927 312.942 288.828 312.758C288.716 312.544 288.634 312.288 288.491 312.043C288.215 311.522 287.531 311.134 287.04 310.378C286.51 309.539 286.097 308.631 285.814 307.68C285.116 305.253 283.919 302.998 282.299 301.059C281.328 299.933 280.272 298.881 279.142 297.913C277.943 296.853 276.669 295.88 275.331 295.001C274.036 294.056 272.67 293.212 271.245 292.477L267.158 290.495C265.87 289.882 264.665 289.248 263.49 288.748L260.22 287.348C259.734 287.162 259.26 286.947 258.8 286.704C258.361 286.449 258.003 286.163 257.635 285.959L256.614 285.397C256.287 285.223 256.011 284.988 255.766 284.835C255.265 284.518 254.826 284.344 254.54 284.191C254.253 284.038 254.11 283.956 254.121 283.936C254.28 283.971 254.434 284.026 254.58 284.099C255.026 284.254 255.46 284.442 255.878 284.661C256.498 285.051 257.147 285.393 257.819 285.683C258.218 285.877 258.596 286.163 259.004 286.388C259.413 286.612 259.924 286.776 260.414 286.99L263.704 288.319C264.879 288.799 266.105 289.432 267.413 290.035L271.5 291.987C272.944 292.728 274.328 293.582 275.638 294.541C277 295.428 278.291 296.418 279.5 297.504C280.646 298.491 281.712 299.567 282.688 300.722C284.328 302.717 285.52 305.041 286.182 307.537C286.438 308.467 286.813 309.359 287.296 310.194C287.725 310.909 288.389 311.328 288.675 311.92C288.828 312.206 288.89 312.472 288.982 312.666C289.064 312.839 289.182 312.992 289.329 313.116C289.584 313.381 289.492 313.616 289.482 313.596Z" fill="#263238"/>
<path d="M158.406 444.917C158.263 444.917 158.141 419.067 158.141 387.179C158.141 355.292 158.263 329.442 158.406 329.442C158.549 329.442 158.672 355.292 158.672 387.179C158.672 419.067 158.56 444.917 158.406 444.917Z" fill="#263238"/>
</svg>
