<svg width="270" height="270" viewBox="0 0 270 270" fill="none" xmlns="http://www.w3.org/2000/svg">
<rect width="270" height="270" rx="18" fill="#030812"/>
<path d="M243.784 223.331H31V223.437H243.784V223.331Z" fill="#EBEBEB"/>
<path d="M95.8994 225.902H91.4395V226.008H95.8994V225.902Z" fill="#EBEBEB"/>
<path d="M229.392 228.693H221.796V228.8H229.392V228.693Z" fill="#EBEBEB"/>
<path d="M193.521 225.953H168.349V226.059H193.521V225.953Z" fill="#EBEBEB"/>
<path d="M130.536 228.378H111.279V228.485H130.536V228.378Z" fill="#EBEBEB"/>
<path d="M90.4434 227.706H83.7705V227.812H90.4434V227.706Z" fill="#EBEBEB"/>
<path d="M212.437 228.378H202.836V228.485H212.437V228.378Z" fill="#EBEBEB"/>
<path d="M81.2891 227.655H58.6318V227.761H81.2891V227.655Z" fill="#EBEBEB"/>
<path d="M131.86 204.351H49.6865C49.0427 204.35 48.4258 204.093 47.971 203.638C47.5162 203.182 47.2607 202.565 47.2607 201.921V86.4087C47.2663 85.7687 47.5243 85.1567 47.9784 84.7057C48.4326 84.2547 49.0464 84.0011 49.6865 84H131.86C132.504 84 133.122 84.256 133.578 84.7117C134.034 85.1674 134.29 85.7855 134.29 86.43V86.43V201.921C134.29 202.565 134.034 203.183 133.578 203.639C133.122 204.095 132.504 204.351 131.86 204.351V204.351ZM49.6865 84.0851C49.071 84.0862 48.481 84.3315 48.0462 84.7672C47.6114 85.2028 47.3671 85.7932 47.3671 86.4087V201.921C47.3671 202.536 47.6114 203.127 48.0462 203.562C48.481 203.998 49.071 204.243 49.6865 204.244H131.86C132.475 204.242 133.065 203.997 133.5 203.561C133.935 203.126 134.181 202.536 134.183 201.921V86.4087C134.181 85.7932 133.935 85.2034 133.5 84.7682C133.065 84.3329 132.475 84.0874 131.86 84.0851H49.6865Z" fill="#EBEBEB"/>
<path d="M223.915 204.351H141.738C141.094 204.349 140.477 204.092 140.022 203.637C139.567 203.181 139.31 202.565 139.308 201.921V86.4087C139.314 85.7683 139.573 85.1563 140.028 84.7054C140.483 84.2545 141.097 84.0011 141.738 84H223.915C224.554 84.0022 225.167 84.2563 225.62 84.7072C226.074 85.1581 226.331 85.7694 226.336 86.4087V201.921C226.337 202.239 226.275 202.555 226.153 202.849C226.032 203.144 225.854 203.412 225.629 203.637C225.404 203.863 225.137 204.042 224.843 204.165C224.549 204.287 224.234 204.35 223.915 204.351V204.351ZM141.738 84.0851C141.122 84.0874 140.532 84.3329 140.097 84.7682C139.662 85.2034 139.416 85.7932 139.414 86.4087V201.921C139.416 202.536 139.662 203.126 140.097 203.561C140.532 203.997 141.122 204.242 141.738 204.244H223.915C224.531 204.242 225.12 203.997 225.556 203.561C225.991 203.126 226.236 202.536 226.239 201.921V86.4087C226.236 85.7932 225.991 85.2034 225.556 84.7682C225.12 84.3329 224.531 84.0874 223.915 84.0851H141.738Z" fill="#EBEBEB"/>
<path d="M117.727 96.6099H64.0029V177.017H117.727V96.6099Z" fill="#29276C"/>
<path d="M116.535 96.6099H62.8115V177.017H116.535V96.6099Z" fill="#F5F5F5"/>
<path d="M114.39 99.0186H64.9521V174.612H114.39V99.0186Z" fill="white"/>
<path d="M65.8583 99.0142H64.9561V174.608H65.8583V99.0142Z" fill="#29276C"/>
<path d="M115.645 151.155H63.6963V154.385H115.645V151.155Z" fill="#F5F5F5"/>
<path opacity="0.4" d="M115.65 92.9585H60.5811V109.496H115.65V92.9585Z" fill="#F0F0F0"/>
<path d="M60.4746 92.6266H120.054C120.136 92.6306 120.213 92.6645 120.271 92.7218C120.329 92.7791 120.364 92.8558 120.369 92.9373V92.9373C120.369 93.0253 120.334 93.1097 120.272 93.172C120.21 93.2342 120.125 93.2692 120.037 93.2692H60.4576C60.3703 93.2681 60.2869 93.2326 60.2256 93.1705C60.1643 93.1084 60.1299 93.0246 60.1299 92.9373V92.9373C60.1364 92.8511 60.1759 92.7708 60.24 92.7129C60.3042 92.6551 60.3882 92.6242 60.4746 92.6266V92.6266Z" fill="#29276C"/>
<path d="M58.4961 92.937C58.4953 93.2636 58.5913 93.5831 58.772 93.8551C58.9528 94.1271 59.2101 94.3394 59.5115 94.4651C59.8129 94.5909 60.1448 94.6244 60.4653 94.5616C60.7857 94.4987 61.0803 94.3422 61.3119 94.1118C61.5434 93.8815 61.7014 93.5877 61.7659 93.2676C61.8305 92.9474 61.7986 92.6153 61.6744 92.3133C61.5502 92.0113 61.3393 91.7528 61.0682 91.5707C60.7971 91.3886 60.4781 91.2909 60.1516 91.29V91.29C59.9347 91.2895 59.7199 91.3316 59.5193 91.4141C59.3188 91.4966 59.1365 91.6177 58.9827 91.7707C58.829 91.9236 58.7069 92.1053 58.6234 92.3054C58.5399 92.5055 58.4967 92.7202 58.4961 92.937V92.937Z" fill="#29276C"/>
<path d="M117.285 94.8008C117.4 94.801 117.51 94.7568 117.593 94.6776C117.677 94.5983 117.726 94.49 117.732 94.3753V93.4007C117.726 93.2859 117.677 93.1777 117.593 93.0984C117.51 93.0192 117.4 92.975 117.285 92.9751V92.9751C117.227 92.9723 117.169 92.9811 117.115 93.0012C117.061 93.0213 117.012 93.0522 116.97 93.092C116.928 93.1318 116.895 93.1797 116.872 93.2328C116.849 93.2859 116.838 93.343 116.838 93.4007V94.3795C116.838 94.4924 116.883 94.6006 116.963 94.6804C117.042 94.7603 117.151 94.8051 117.263 94.8051L117.285 94.8008Z" fill="#29276C"/>
<path d="M65.4715 94.8008C65.5843 94.8008 65.6926 94.756 65.7724 94.6761C65.8522 94.5963 65.897 94.4881 65.897 94.3752V93.4007C65.897 93.2878 65.8522 93.1796 65.7724 93.0997C65.6926 93.0199 65.5843 92.9751 65.4715 92.9751C65.3586 92.9751 65.2504 93.0199 65.1705 93.0997C65.0907 93.1796 65.0459 93.2878 65.0459 93.4007V94.3582C65.0459 94.4711 65.0907 94.5793 65.1705 94.6591C65.2504 94.7389 65.3586 94.7838 65.4715 94.7838V94.8008Z" fill="#29276C"/>
<path d="M110.33 92.937C110.329 93.2636 110.425 93.5831 110.606 93.8551C110.787 94.1271 111.044 94.3394 111.345 94.4651C111.647 94.5909 111.979 94.6244 112.299 94.5616C112.62 94.4987 112.914 94.3422 113.146 94.1118C113.377 93.8815 113.535 93.5877 113.6 93.2676C113.664 92.9474 113.633 92.6153 113.508 92.3133C113.384 92.0113 113.173 91.7528 112.902 91.5707C112.631 91.3886 112.312 91.2909 111.986 91.29V91.29C111.769 91.2895 111.554 91.3316 111.353 91.4141C111.153 91.4966 110.97 91.6177 110.817 91.7707C110.663 91.9236 110.541 92.1053 110.457 92.3054C110.374 92.5055 110.331 92.7202 110.33 92.937V92.937Z" fill="#29276C"/>
<path d="M213.667 186.69H198.125V221.144H213.667V186.69Z" fill="#29276C"/>
<path d="M210.683 221.148H134.047V223.331H210.683V221.148Z" fill="#29276C"/>
<path d="M198.125 186.694H131.06V221.148H198.125V186.694Z" fill="#F5F5F5"/>
<path d="M192.018 190.933H137.171V202.231H192.018V190.933Z" fill="#29276C"/>
<path d="M192.018 205.606H137.171V216.905H192.018V205.606Z" fill="#29276C"/>
<path d="M171.578 195.81H157.602C157.224 195.81 156.917 196.116 156.917 196.495V196.673C156.917 197.052 157.224 197.359 157.602 197.359H171.578C171.956 197.359 172.263 197.052 172.263 196.673V196.495C172.263 196.116 171.956 195.81 171.578 195.81Z" fill="#F5F5F5"/>
<path d="M171.578 210.479H157.602C157.224 210.479 156.917 210.786 156.917 211.164V211.343C156.917 211.721 157.224 212.028 157.602 212.028H171.578C171.956 212.028 172.263 211.721 172.263 211.343V211.164C172.263 210.786 171.956 210.479 171.578 210.479Z" fill="#F5F5F5"/>
<path d="M179.596 181.749C181.495 181.749 183.034 180.209 183.034 178.31C183.034 176.411 181.495 174.872 179.596 174.872C177.697 174.872 176.157 176.411 176.157 178.31C176.157 180.209 177.697 181.749 179.596 181.749Z" fill="#F5F5F5"/>
<path d="M173.391 180.97C175.283 180.97 176.817 179.437 176.817 177.544C176.817 175.652 175.283 174.119 173.391 174.119C171.499 174.119 169.965 175.652 169.965 177.544C169.965 179.437 171.499 180.97 173.391 180.97Z" fill="#F5F5F5"/>
<path d="M156.828 182.553C158.72 182.553 160.254 181.02 160.254 179.127C160.254 177.235 158.72 175.702 156.828 175.702C154.936 175.702 153.402 177.235 153.402 179.127C153.402 181.02 154.936 182.553 156.828 182.553Z" fill="#F5F5F5"/>
<path d="M165.658 184.136C167.55 184.136 169.084 182.603 169.084 180.71C169.084 178.818 167.55 177.285 165.658 177.285C163.766 177.285 162.232 178.818 162.232 180.71C162.232 182.603 163.766 184.136 165.658 184.136Z" fill="#F5F5F5"/>
<path d="M188.729 178.812C188.729 178.812 188.176 186.694 166.914 186.694C145.653 186.694 145.1 178.812 145.1 178.812H188.729Z" fill="#29276C"/>
<path d="M116.326 187.554H108.568V221.199H116.326V187.554Z" fill="#29276C"/>
<path d="M114.833 221.199H64.5137V223.331H114.833V221.199Z" fill="#29276C"/>
<path d="M108.565 187.554H63.0244V221.199H108.565V187.554Z" fill="#F5F5F5"/>
<path d="M105.517 191.694H66.0752V202.729H105.517V191.694Z" fill="#29276C"/>
<path d="M105.517 206.023H66.0752V217.058H105.517V206.023Z" fill="#29276C"/>
<path d="M79.8208 193.044H91.7665C92.1556 193.041 92.5282 192.886 92.8037 192.611C93.0792 192.337 93.2356 191.965 93.2389 191.575V191.575C93.2378 191.185 93.0823 190.811 92.8064 190.536C92.5305 190.26 92.1566 190.104 91.7665 190.103H79.8208C79.4317 190.106 79.0595 190.263 78.7848 190.538C78.51 190.814 78.3548 191.186 78.3525 191.575V191.575C78.3548 191.964 78.5102 192.336 78.785 192.611C79.0599 192.886 79.432 193.041 79.8208 193.044V193.044Z" fill="#F5F5F5"/>
<path d="M79.8208 207.372H91.7665C92.1566 207.371 92.5305 207.216 92.8064 206.94C93.0823 206.664 93.2378 206.29 93.2389 205.9C93.2356 205.511 93.0792 205.139 92.8037 204.864C92.5282 204.589 92.1556 204.434 91.7665 204.432H79.8208C79.432 204.434 79.0599 204.589 78.785 204.864C78.5102 205.139 78.3548 205.511 78.3525 205.9C78.3548 206.289 78.51 206.662 78.7848 206.937C79.0595 207.213 79.4317 207.369 79.8208 207.372V207.372Z" fill="#F5F5F5"/>
<path d="M172.285 104.019H150.011V149.359H172.285V104.019Z" fill="#EBEBEB"/>
<path d="M171.803 104.019H148.223V149.359H171.803V104.019Z" fill="#F5F5F5"/>
<path d="M168.369 107.449H151.648V145.929H168.369V107.449Z" fill="white"/>
<path d="M214.029 128.144H201.832V142.196H214.029V128.144Z" fill="#EBEBEB"/>
<path d="M212.581 128.144H199.363V142.196H212.581V128.144Z" fill="#F5F5F5"/>
<path d="M211.476 129.255H200.475V141.09H211.476V129.255Z" fill="white"/>
<path d="M207.837 132.124H204.109C203.573 132.124 203.139 132.558 203.139 133.094V137.252C203.139 137.788 203.573 138.222 204.109 138.222H207.837C208.373 138.222 208.807 137.788 208.807 137.252V133.094C208.807 132.558 208.373 132.124 207.837 132.124Z" fill="#F0F0F0"/>
<path d="M204.198 108.594H192.001V122.646H204.198V108.594Z" fill="#EBEBEB"/>
<path d="M202.755 108.594H189.537V122.646H202.755V108.594Z" fill="#F5F5F5"/>
<path d="M201.648 109.7H190.647V121.535H201.648V109.7Z" fill="white"/>
<path d="M198.01 112.568H194.282C193.746 112.568 193.312 113.003 193.312 113.539V117.696C193.312 118.232 193.746 118.667 194.282 118.667H198.01C198.546 118.667 198.98 118.232 198.98 117.696V113.539C198.98 113.003 198.546 112.568 198.01 112.568Z" fill="#F0F0F0"/>
<path d="M137.392 242.55C182.963 242.55 219.906 240.393 219.906 237.732C219.906 235.072 182.963 232.915 137.392 232.915C91.8215 232.915 54.8789 235.072 54.8789 237.732C54.8789 240.393 91.8215 242.55 137.392 242.55Z" fill="#F5F5F5"/>
<path d="M169.557 114.373H77.6729V204.342H169.557V114.373Z" fill="#0038FF"/>
<path opacity="0.7" d="M169.557 114.373H77.6729V204.342H169.557V114.373Z" fill="black"/>
<path d="M167.2 117.25H80.0391V204.342H167.2V117.25Z" fill="white"/>
<path d="M169.557 203.074V204.342H123.251L133.26 194.341L147.04 180.553L169.557 203.074Z" fill="#0038FF"/>
<path opacity="0.7" d="M169.557 203.074V204.342H123.251L133.26 194.341L147.04 180.553L169.557 203.074Z" fill="black"/>
<path d="M77.6729 204.342V195.695L106.143 167.224L143.262 204.342H77.6729Z" fill="#0038FF"/>
<path opacity="0.7" d="M77.6729 204.342V195.695L106.143 167.224L143.262 204.342H77.6729Z" fill="black"/>
<path d="M152.657 145.506C153.902 137.836 148.694 130.609 141.024 129.364C133.354 128.119 126.127 133.328 124.882 140.998C123.637 148.668 128.846 155.895 136.515 157.14C144.185 158.385 151.412 153.176 152.657 145.506Z" fill="#0038FF"/>
<path opacity="0.7" d="M152.657 145.506C153.902 137.836 148.694 130.609 141.024 129.364C133.354 128.119 126.127 133.328 124.882 140.998C123.637 148.668 128.846 155.895 136.515 157.14C144.185 158.385 151.412 153.176 152.657 145.506Z" fill="black"/>
<path d="M104.922 112.603L96.1738 202.146L187.623 211.08L196.371 121.537L104.922 112.603Z" fill="#0038FF"/>
<path opacity="0.1" d="M104.922 112.574L96.1738 202.117L187.623 211.052L196.371 121.508L104.922 112.574Z" fill="black"/>
<path d="M106.998 115.696L98.5293 202.376L185.277 210.851L193.746 124.171L106.998 115.696Z" fill="white"/>
<path d="M186.17 119.043L186.129 119.467L189.17 119.764L189.211 119.34L186.17 119.043Z" fill="#0038FF"/>
<path d="M176.484 117.474L176.441 117.897L183.92 118.645L183.962 118.222L176.484 117.474Z" fill="#0038FF"/>
<path opacity="0.1" d="M186.17 119.043L186.129 119.467L189.17 119.764L189.211 119.34L186.17 119.043Z" fill="black"/>
<path opacity="0.1" d="M176.484 117.474L176.441 117.897L183.92 118.645L183.962 118.222L176.484 117.474Z" fill="black"/>
<path opacity="0.1" d="M187.741 209.811L187.618 211.075L141.533 206.572L152.466 197.593L167.523 185.208L187.741 209.811Z" fill="black"/>
<path d="M187.741 209.811L187.618 211.075L141.533 206.572L152.466 197.593L167.523 185.208L187.741 209.811Z" fill="#0038FF"/>
<path opacity="0.1" d="M187.741 209.811L187.618 211.075L141.533 206.572L152.466 197.593L167.523 185.208L187.741 209.811Z" fill="black"/>
<path opacity="0.1" d="M162.918 161.351C170.688 161.351 176.987 155.052 176.987 147.282C176.987 139.511 170.688 133.212 162.918 133.212C155.148 133.212 148.849 139.511 148.849 147.282C148.849 155.052 155.148 161.351 162.918 161.351Z" fill="black"/>
<path d="M162.918 161.351C170.688 161.351 176.987 155.052 176.987 147.282C176.987 139.511 170.688 133.212 162.918 133.212C155.148 133.212 148.849 139.511 148.849 147.282C148.849 155.052 155.148 161.351 162.918 161.351Z" fill="#0038FF"/>
<path opacity="0.1" d="M162.918 161.351C170.688 161.351 176.987 155.052 176.987 147.282C176.987 139.511 170.688 133.212 162.918 133.212C155.148 133.212 148.849 139.511 148.849 147.282C148.849 155.052 155.148 161.351 162.918 161.351Z" fill="black"/>
<path d="M155.589 124.486L63.9004 130.48L69.769 220.258L161.458 214.264L155.589 124.486Z" fill="#0038FF"/>
<path d="M153.419 127.509L66.4443 133.195L72.1253 220.102L159.1 214.417L153.419 127.509Z" fill="white"/>
<path opacity="0.5" d="M155.589 124.486L63.9004 130.48L69.769 220.258L161.458 214.264L155.589 124.486Z" fill="white"/>
<path d="M161.364 213.007L161.445 214.271L115.241 217.288L124.574 206.658L137.426 192.001L161.364 213.007Z" fill="#0038FF"/>
<path opacity="0.5" d="M161.364 213.007L161.445 214.271L115.241 217.288L124.574 206.658L137.426 192.001L161.364 213.007Z" fill="white"/>
<path d="M69.7561 220.258L69.1943 211.632L95.7498 181.366L135.204 215.986L69.7561 220.258Z" fill="#0038FF"/>
<path opacity="0.5" d="M69.7561 220.258L69.1943 211.632L95.7498 181.366L135.204 215.986L69.7561 220.258Z" fill="white"/>
<path d="M126.744 169.386C134.514 169.386 140.813 163.087 140.813 155.317C140.813 147.547 134.514 141.248 126.744 141.248C118.974 141.248 112.675 147.547 112.675 155.317C112.675 163.087 118.974 169.386 126.744 169.386Z" fill="#0038FF"/>
<path opacity="0.5" d="M126.744 169.386C134.514 169.386 140.813 163.087 140.813 155.317C140.813 147.547 134.514 141.248 126.744 141.248C118.974 141.248 112.675 147.547 112.675 155.317C112.675 163.087 118.974 169.386 126.744 169.386Z" fill="white"/>
<path d="M197.24 146.099C197.543 146.656 197.794 147.15 198.041 147.686C198.287 148.222 198.53 148.737 198.764 149.269C199.219 150.333 199.645 151.397 200.041 152.525C200.429 153.642 200.759 154.778 201.028 155.929L201.228 156.806L201.39 157.695C201.449 157.993 201.483 158.3 201.526 158.602L201.586 159.061V159.364C201.594 159.505 201.594 159.647 201.586 159.789C201.552 160.602 201.364 161.4 201.032 162.143C200.776 162.737 200.48 163.315 200.147 163.87C199.527 164.887 198.841 165.861 198.092 166.786C196.651 168.575 195.073 170.25 193.372 171.794L191.636 170.237C192.874 168.45 194.104 166.603 195.211 164.773C195.752 163.882 196.248 162.965 196.696 162.023C196.897 161.6 197.069 161.164 197.211 160.717C197.316 160.43 197.368 160.125 197.364 159.819V159.725L197.283 159.359C197.232 159.113 197.185 158.87 197.113 158.623L196.917 157.883L196.7 157.138C196.389 156.146 196.045 155.155 195.657 154.159C195.27 153.163 194.862 152.189 194.432 151.214C194.002 150.239 193.53 149.244 193.095 148.346L197.24 146.099Z" fill="#EEC1BB"/>
<path d="M202.121 153.542L196.329 156.602L194.933 157.342C194.933 157.342 194.606 156.385 194.142 154.993C193.767 153.882 193.291 152.499 192.839 151.099C192.695 150.673 192.55 150.218 192.414 149.784C192.371 149.661 192.329 149.541 192.29 149.418C191.039 145.588 194.512 143.864 196.874 144.358C200.917 145.205 202.121 153.542 202.121 153.542Z" fill="#0038FF"/>
<path opacity="0.7" d="M202.121 153.542L196.329 156.602L194.933 157.342C194.933 157.342 194.606 156.385 194.142 154.993C193.767 153.882 193.291 152.499 192.839 151.099C192.695 150.673 192.55 150.218 192.414 149.784C192.371 149.661 192.329 149.541 192.29 149.418C191.039 145.588 194.512 143.864 196.874 144.358C200.917 145.205 202.121 153.542 202.121 153.542Z" fill="white"/>
<path d="M196.329 156.602L194.933 157.342C194.933 157.342 194.606 156.385 194.142 154.993C193.767 153.883 193.291 152.499 192.84 151.099C192.695 150.674 192.55 150.218 192.414 149.784L195.606 149.159C195.606 149.159 196.04 154.219 196.329 156.602Z" fill="#0038FF"/>
<path opacity="0.6" d="M196.329 156.602L194.933 157.342C194.933 157.342 194.606 156.385 194.142 154.993C193.767 153.883 193.291 152.499 192.84 151.099C192.695 150.674 192.55 150.218 192.414 149.784L195.606 149.159C195.606 149.159 196.04 154.219 196.329 156.602Z" fill="white"/>
<path d="M192.342 169.752L189.363 170.744L192.066 173.642C192.066 173.642 194.419 172.233 193.815 170.901L192.342 169.752Z" fill="#EEC1BB"/>
<path d="M187.308 173.411L189.648 175.663L192.057 173.641L189.355 170.743L187.308 173.411Z" fill="#EEC1BB"/>
<path d="M170.991 231.131L167.902 230.902L167.612 223.68L170.702 223.909L170.991 231.131Z" fill="#EEC1BB"/>
<path d="M190.759 233.889H187.656L185.239 226.706H188.342L190.759 233.889Z" fill="#EEC1BB"/>
<path d="M167.612 223.684L167.761 227.408L170.855 227.638L170.706 223.914L167.612 223.684Z" fill="#DB9792"/>
<path d="M188.342 226.71H185.239L186.486 230.412H189.589L188.342 226.71Z" fill="#DB9792"/>
<path d="M190.708 229.693H185.027C185.027 229.693 179.495 210.662 178.103 200.81C177.805 198.682 177.98 195.873 178.426 192.826C179.188 187.613 180.729 181.693 182.01 177.276C183.15 173.348 184.091 170.603 184.091 170.603L194.768 171.399C194.189 179.148 186.521 191.873 187.053 202.389C187.542 212.096 190.708 229.693 190.708 229.693Z" fill="#0038FF"/>
<path opacity="0.7" d="M190.708 229.693H185.027C185.027 229.693 179.495 210.662 178.103 200.81C177.805 198.682 177.98 195.873 178.426 192.826C179.188 187.613 180.729 181.693 182.01 177.276C183.15 173.348 184.091 170.603 184.091 170.603L194.768 171.399C194.189 179.148 186.521 191.873 187.053 202.389C187.542 212.096 190.708 229.693 190.708 229.693Z" fill="black"/>
<path d="M192.261 135.587C191.597 137.8 190.742 141.894 192.172 143.554C192.172 143.554 191.321 145.784 187.133 145.366C182.52 144.907 185.158 142.86 185.158 142.86C187.733 142.507 187.856 140.634 187.588 138.834L192.261 135.587Z" fill="#EEC1BB"/>
<path d="M184.397 132.238C184.371 132.485 184.218 132.663 184.056 132.663C183.895 132.663 183.784 132.433 183.805 132.182C183.827 131.931 183.984 131.757 184.146 131.757C184.308 131.757 184.422 131.987 184.397 132.238Z" fill="#263238"/>
<path d="M184.388 132.361C184.018 133.093 183.547 133.769 182.988 134.37C183.146 134.509 183.332 134.612 183.533 134.672C183.735 134.731 183.947 134.746 184.154 134.715L184.388 132.361Z" fill="#D4827D"/>
<path d="M185.35 131.416C185.324 131.417 185.299 131.41 185.277 131.398C185.254 131.385 185.235 131.366 185.223 131.344C185.131 131.185 185.003 131.049 184.849 130.949C184.696 130.848 184.52 130.785 184.337 130.765C184.298 130.763 184.261 130.746 184.234 130.718C184.208 130.689 184.193 130.651 184.193 130.612C184.191 130.594 184.194 130.576 184.2 130.559C184.206 130.542 184.216 130.526 184.228 130.513C184.241 130.5 184.255 130.49 184.272 130.482C184.289 130.475 184.307 130.472 184.325 130.472H184.346C184.578 130.492 184.801 130.568 184.998 130.693C185.194 130.818 185.357 130.989 185.474 131.191C185.494 131.224 185.501 131.264 185.492 131.303C185.483 131.341 185.46 131.374 185.427 131.395C185.403 131.408 185.377 131.415 185.35 131.416Z" fill="#263238"/>
<path d="M187.243 233.527H191.014C191.076 233.527 191.136 233.548 191.184 233.587C191.232 233.626 191.265 233.68 191.278 233.74L191.89 236.498C191.903 236.557 191.904 236.617 191.893 236.676C191.882 236.735 191.859 236.791 191.826 236.842C191.793 236.892 191.751 236.935 191.701 236.969C191.652 237.003 191.596 237.026 191.537 237.038H191.435C190.222 237.017 189.333 236.949 187.801 236.949C186.86 236.949 184.915 237.047 183.613 237.047C182.311 237.047 182.145 235.77 182.677 235.643C185.064 235.119 185.967 234.4 186.728 233.71C186.872 233.589 187.055 233.524 187.243 233.527V233.527Z" fill="#263238"/>
<path d="M167.753 230.208L171.132 230.459C171.194 230.465 171.251 230.491 171.296 230.534C171.341 230.576 171.37 230.632 171.379 230.693L171.783 233.485C171.793 233.543 171.791 233.603 171.777 233.661C171.764 233.718 171.739 233.773 171.704 233.821C171.669 233.869 171.625 233.909 171.574 233.94C171.524 233.971 171.468 233.991 171.409 234C171.372 234.004 171.335 234.004 171.298 234C170.081 233.885 168.319 233.685 166.796 233.574C165.004 233.442 163.817 233.378 161.714 233.221C160.438 233.127 160.191 231.817 160.727 231.74C163.187 231.391 164.804 231.527 166.992 230.395C167.223 230.263 167.487 230.199 167.753 230.208V230.208Z" fill="#263238"/>
<path d="M178.409 145.597C178.128 146.078 177.792 146.627 177.481 147.146C177.171 147.665 176.83 148.193 176.494 148.708C175.826 149.742 175.132 150.755 174.413 151.733C173.694 152.712 172.945 153.657 172.157 154.538C171.48 155.304 170.743 156.016 169.953 156.666C169.297 156.817 168.629 156.914 167.957 156.955C167.103 156.998 166.247 156.946 165.404 156.802C164.087 156.571 162.811 156.15 161.616 155.551C161.416 155.449 161.22 155.338 161.029 155.227L160.493 154.908L158.871 156.576C159.101 156.84 159.275 157.002 159.484 157.223C159.683 157.419 159.891 157.603 160.11 157.776C160.535 158.135 160.983 158.466 161.45 158.768C162.402 159.377 163.425 159.866 164.497 160.223C165.591 160.586 166.726 160.81 167.876 160.892C169.035 160.964 170.198 160.896 171.34 160.692L171.693 160.628L172.098 160.364C173.288 159.569 174.392 158.652 175.392 157.628C176.355 156.66 177.259 155.636 178.098 154.559C178.949 153.504 179.707 152.41 180.443 151.299C180.809 150.733 181.162 150.163 181.507 149.597C181.852 149.031 182.179 148.465 182.52 147.827L178.409 145.597Z" fill="#EEC1BB"/>
<path d="M161.902 155.921L159.586 153.895L157.82 156.951C157.82 156.951 159.467 158.798 161.404 157.636L161.902 155.921Z" fill="#EEC1BB"/>
<path d="M156.365 152.567L155.135 155.363L157.803 156.951L159.586 153.912L156.365 152.567Z" fill="#EEC1BB"/>
<path d="M192.87 132.217C192.376 135.255 192.244 137.055 190.546 138.473C187.993 140.6 184.354 138.826 183.928 135.702C183.545 132.893 184.414 128.395 187.524 127.476C188.21 127.27 188.937 127.243 189.636 127.397C190.335 127.552 190.983 127.882 191.518 128.357C192.054 128.832 192.459 129.436 192.695 130.111C192.932 130.787 192.992 131.511 192.87 132.217V132.217Z" fill="#EEC1BB"/>
<path d="M196.308 130.616C198.581 132.208 193.172 138.047 191.248 137.983C189.324 137.919 185.716 132.587 186.899 129.748C185.907 129.348 185.588 129.216 185.196 128.203C184.464 126.369 185.345 123.309 189.839 124.169C188.724 124.927 189.499 125.527 191.614 125.233C190.763 126.225 192.159 126.957 194.214 126.531C193.853 128.352 198.436 128.612 196.308 130.616Z" fill="#263238"/>
<path d="M188.593 133.157C188.449 133.917 188.012 134.589 187.376 135.029C186.525 135.604 185.776 134.923 185.742 133.948C185.712 133.076 186.116 131.723 187.099 131.54C187.443 131.482 187.796 131.563 188.08 131.765C188.364 131.966 188.556 132.273 188.614 132.616C188.644 132.796 188.636 132.98 188.593 133.157V133.157Z" fill="#EEC1BB"/>
<path opacity="0.4" d="M184.835 179.514C184.775 184.672 181.149 190.37 178.426 192.826C179.188 187.613 180.728 181.693 182.009 177.276C182.805 177.114 184.171 178.625 184.835 179.514Z" fill="black"/>
<path d="M186.219 234.072C186.007 234.088 185.797 234.031 185.623 233.91C185.566 233.864 185.522 233.805 185.496 233.737C185.469 233.669 185.46 233.595 185.47 233.523C185.47 233.481 185.481 233.439 185.503 233.402C185.525 233.365 185.556 233.335 185.593 233.315C185.942 233.144 186.938 233.74 187.053 233.825C187.064 233.834 187.072 233.845 187.078 233.857C187.083 233.87 187.085 233.884 187.083 233.898C187.081 233.912 187.075 233.926 187.065 233.937C187.055 233.947 187.042 233.955 187.027 233.957C186.764 234.029 186.492 234.068 186.219 234.072V234.072ZM185.759 233.43C185.727 233.421 185.693 233.421 185.661 233.43C185.647 233.438 185.635 233.451 185.626 233.466C185.618 233.481 185.614 233.498 185.614 233.515C185.608 233.564 185.614 233.615 185.632 233.661C185.65 233.708 185.679 233.75 185.716 233.783C186.062 233.941 186.455 233.961 186.814 233.838C186.493 233.631 186.134 233.487 185.759 233.412V233.43Z" fill="#0038FF"/>
<path d="M187.01 233.962H186.976C186.657 233.787 186.035 233.11 186.099 232.761C186.11 232.707 186.139 232.659 186.182 232.624C186.225 232.589 186.278 232.57 186.333 232.57C186.39 232.561 186.447 232.565 186.501 232.581C186.556 232.598 186.606 232.626 186.648 232.664C187.006 232.957 187.074 233.851 187.074 233.889C187.074 233.902 187.07 233.915 187.064 233.927C187.059 233.939 187.05 233.949 187.04 233.957L187.01 233.962ZM186.384 232.685H186.355C186.257 232.685 186.248 232.74 186.244 232.757C186.206 232.962 186.601 233.476 186.921 233.719C186.897 233.367 186.77 233.029 186.555 232.749C186.506 232.712 186.445 232.696 186.384 232.702V232.685Z" fill="#0038FF"/>
<path d="M166.694 230.663C166.339 230.702 165.982 230.611 165.689 230.408C165.643 230.36 165.61 230.302 165.59 230.238C165.571 230.174 165.567 230.107 165.579 230.042C165.583 230.001 165.597 229.963 165.621 229.93C165.645 229.897 165.677 229.871 165.715 229.855C166.106 229.676 167.302 230.395 167.438 230.48C167.451 230.488 167.461 230.5 167.467 230.513C167.473 230.527 167.475 230.542 167.472 230.557C167.469 230.572 167.46 230.585 167.449 230.596C167.438 230.606 167.424 230.614 167.409 230.616C167.171 230.647 166.933 230.662 166.694 230.663V230.663ZM165.876 229.969C165.843 229.97 165.809 229.977 165.779 229.991C165.764 229.997 165.751 230.007 165.741 230.019C165.731 230.032 165.725 230.047 165.723 230.063C165.714 230.106 165.716 230.151 165.729 230.193C165.742 230.236 165.764 230.274 165.796 230.306C165.974 230.489 166.481 230.557 167.17 230.493C166.776 230.238 166.337 230.06 165.876 229.969V229.969Z" fill="#0038FF"/>
<path d="M167.4 230.616H167.361C167.004 230.421 166.314 229.697 166.395 229.34C166.416 229.259 166.48 229.161 166.685 229.152C166.832 229.151 166.974 229.208 167.08 229.31C167.334 229.668 167.471 230.096 167.472 230.535C167.472 230.548 167.469 230.561 167.463 230.572C167.457 230.583 167.448 230.592 167.438 230.599L167.4 230.616ZM166.702 229.306C166.565 229.306 166.557 229.361 166.553 229.378C166.502 229.582 166.978 230.148 167.327 230.404C167.32 230.049 167.203 229.705 166.991 229.42C166.953 229.383 166.908 229.353 166.858 229.333C166.808 229.313 166.755 229.304 166.702 229.306V229.306Z" fill="#0038FF"/>
<path d="M178.247 170.169C178.247 170.169 164.85 190.435 164.484 199.891C164.106 209.726 166.676 226.604 166.676 226.604L171.915 226.995C171.915 226.995 172.523 210.943 173.472 201.325C174.507 190.843 189.644 179.161 190.24 171.063L178.247 170.169Z" fill="#0038FF"/>
<path opacity="0.7" d="M178.247 170.169C178.247 170.169 164.85 190.435 164.484 199.891C164.106 209.726 166.676 226.604 166.676 226.604L171.915 226.995C171.915 226.995 172.523 210.943 173.472 201.325C174.507 190.843 189.644 179.161 190.24 171.063L178.247 170.169Z" fill="black"/>
<path d="M184.023 229.816H191.449V227.816L183.15 227.688L184.023 229.816Z" fill="#0038FF"/>
<path d="M165.604 226.633L172.877 227.191L173.03 225.174L164.889 224.446L165.604 226.633Z" fill="#0038FF"/>
<path d="M184.023 147.022C183.802 149.975 180.304 155.733 180.304 155.733L172.384 151.571C172.384 151.571 175.065 147.26 177.997 144.694C180.929 142.128 184.266 143.775 184.023 147.022Z" fill="#0038FF"/>
<path opacity="0.7" d="M184.023 147.022C183.802 149.975 180.304 155.733 180.304 155.733L172.384 151.571C172.384 151.571 175.065 147.26 177.997 144.694C180.929 142.128 184.266 143.775 184.023 147.022Z" fill="white"/>
<path d="M184.261 143.639C184.473 143.213 184.167 141.698 184.167 141.698C184.167 141.698 190.751 140.813 193.104 141.651C194.381 142.102 193.257 144.379 193.257 144.379L184.261 143.639Z" fill="#0038FF"/>
<path opacity="0.7" d="M184.261 143.639C184.473 143.213 184.167 141.698 184.167 141.698C184.167 141.698 190.751 140.813 193.104 141.651C194.381 142.102 193.257 144.379 193.257 144.379L184.261 143.639Z" fill="black"/>
<path d="M194.764 171.398L178.248 170.169C177.708 166.01 177.519 161.813 177.682 157.623C177.75 156.116 177.869 154.729 178.013 153.461C178.779 146.826 180.397 143.456 180.397 143.456C181.987 143.162 183.598 142.992 185.214 142.949C187.566 142.987 189.913 143.162 192.244 143.473C193.934 143.689 195.608 144.019 197.253 144.46C193.913 156.24 195.066 168.866 194.764 171.398Z" fill="#0038FF"/>
<path opacity="0.7" d="M194.764 171.398L178.248 170.169C177.708 166.01 177.519 161.813 177.682 157.623C177.75 156.116 177.869 154.729 178.013 153.461C178.779 146.826 180.397 143.456 180.397 143.456C181.987 143.162 183.598 142.992 185.214 142.949C187.566 142.987 189.913 143.162 192.244 143.473C193.934 143.689 195.608 144.019 197.253 144.46C193.913 156.24 195.066 168.866 194.764 171.398Z" fill="white"/>
<path d="M35.7753 44V31.4H40.2753C40.9593 31.4 41.5773 31.571 42.1293 31.913C42.6873 32.255 43.1283 32.714 43.4523 33.29C43.7763 33.866 43.9383 34.499 43.9383 35.189C43.9383 35.897 43.7703 36.539 43.4343 37.115C43.1043 37.685 42.6603 38.141 42.1023 38.483C41.5443 38.819 40.9353 38.987 40.2753 38.987H37.9713V44H35.7753ZM37.9713 36.791H40.0413C40.3533 36.791 40.6383 36.713 40.8963 36.557C41.1543 36.401 41.3583 36.191 41.5083 35.927C41.6643 35.663 41.7423 35.369 41.7423 35.045C41.7423 34.715 41.6643 34.418 41.5083 34.154C41.3583 33.89 41.1543 33.68 40.8963 33.524C40.6383 33.368 40.3533 33.29 40.0413 33.29H37.9713V36.791ZM45.6645 44V30.5H47.8605V44H45.6645ZM54.0439 44.234C53.2159 44.234 52.4599 44.021 51.7759 43.595C51.0979 43.169 50.5549 42.596 50.1469 41.876C49.7449 41.156 49.5439 40.361 49.5439 39.491C49.5439 38.837 49.6609 38.225 49.8949 37.655C50.1289 37.079 50.4499 36.575 50.8579 36.143C51.2719 35.705 51.7519 35.363 52.2979 35.117C52.8439 34.871 53.4259 34.748 54.0439 34.748C54.7459 34.748 55.3879 34.898 55.9699 35.198C56.5579 35.492 57.0559 35.897 57.4639 36.413C57.8719 36.929 58.1689 37.517 58.3549 38.177C58.5409 38.837 58.5829 39.527 58.4809 40.247H51.9019C51.9859 40.583 52.1239 40.886 52.3159 41.156C52.5079 41.42 52.7509 41.633 53.0449 41.795C53.3389 41.951 53.6719 42.032 54.0439 42.038C54.4279 42.044 54.7759 41.954 55.0879 41.768C55.4059 41.576 55.6699 41.318 55.8799 40.994L58.1209 41.516C57.7549 42.314 57.2089 42.968 56.4829 43.478C55.7569 43.982 54.9439 44.234 54.0439 44.234ZM51.8299 38.6H56.2579C56.1919 38.24 56.0509 37.916 55.8349 37.628C55.6249 37.334 55.3639 37.1 55.0519 36.926C54.7399 36.752 54.4039 36.665 54.0439 36.665C53.6839 36.665 53.3509 36.752 53.0449 36.926C52.7389 37.094 52.4779 37.325 52.2619 37.619C52.0519 37.907 51.9079 38.234 51.8299 38.6ZM66.8744 35H69.0704V44H66.8654L66.7754 42.884C66.5234 43.286 66.1934 43.613 65.7854 43.865C65.3834 44.111 64.9094 44.234 64.3634 44.234C63.6974 44.234 63.0734 44.108 62.4914 43.856C61.9094 43.604 61.3964 43.256 60.9524 42.812C60.5084 42.368 60.1634 41.855 59.9174 41.273C59.6714 40.691 59.5484 40.067 59.5484 39.401C59.5484 38.759 59.6654 38.156 59.8994 37.592C60.1334 37.028 60.4634 36.533 60.8894 36.107C61.3154 35.681 61.8074 35.348 62.3654 35.108C62.9234 34.868 63.5234 34.748 64.1654 34.748C64.7654 34.748 65.2994 34.88 65.7674 35.144C66.2414 35.408 66.6434 35.744 66.9734 36.152L66.8744 35ZM64.4264 42.119C64.9064 42.119 65.3234 41.996 65.6774 41.75C66.0314 41.504 66.2984 41.177 66.4784 40.769C66.6644 40.355 66.7394 39.899 66.7034 39.401C66.6614 38.933 66.5234 38.51 66.2894 38.132C66.0554 37.748 65.7554 37.442 65.3894 37.214C65.0234 36.986 64.6124 36.872 64.1564 36.872C63.6824 36.872 63.2564 36.995 62.8784 37.241C62.5064 37.487 62.2184 37.817 62.0144 38.231C61.8104 38.639 61.7294 39.095 61.7714 39.599C61.8194 40.061 61.9694 40.484 62.2214 40.868C62.4734 41.246 62.7914 41.549 63.1754 41.777C63.5654 42.005 63.9824 42.119 64.4264 42.119ZM73.9754 44.162C73.5074 44.132 73.0544 44.039 72.6164 43.883C72.1844 43.721 71.8004 43.502 71.4644 43.226C71.1284 42.95 70.8704 42.62 70.6904 42.236L72.5444 41.444C72.6164 41.564 72.7334 41.693 72.8954 41.831C73.0574 41.963 73.2494 42.074 73.4714 42.164C73.6994 42.254 73.9484 42.299 74.2184 42.299C74.4464 42.299 74.6624 42.269 74.8664 42.209C75.0764 42.143 75.2444 42.044 75.3704 41.912C75.5024 41.78 75.5684 41.609 75.5684 41.399C75.5684 41.177 75.4904 41.006 75.3344 40.886C75.1844 40.76 74.9924 40.667 74.7584 40.607C74.5304 40.541 74.3084 40.481 74.0924 40.427C73.5224 40.313 72.9914 40.136 72.4994 39.896C72.0134 39.656 71.6204 39.347 71.3204 38.969C71.0264 38.585 70.8794 38.123 70.8794 37.583C70.8794 36.989 71.0354 36.476 71.3474 36.044C71.6594 35.612 72.0704 35.279 72.5804 35.045C73.0904 34.811 73.6394 34.694 74.2274 34.694C74.9414 34.694 75.5954 34.844 76.1894 35.144C76.7894 35.438 77.2634 35.855 77.6114 36.395L75.8744 37.421C75.7904 37.277 75.6734 37.145 75.5234 37.025C75.3734 36.899 75.2024 36.797 75.0104 36.719C74.8184 36.635 74.6174 36.587 74.4074 36.575C74.1374 36.563 73.8914 36.587 73.6694 36.647C73.4474 36.707 73.2674 36.809 73.1294 36.953C72.9974 37.097 72.9314 37.289 72.9314 37.529C72.9314 37.757 73.0214 37.928 73.2014 38.042C73.3814 38.15 73.5974 38.234 73.8494 38.294C74.1074 38.354 74.3534 38.42 74.5874 38.492C75.1154 38.666 75.6104 38.879 76.0724 39.131C76.5404 39.383 76.9154 39.692 77.1974 40.058C77.4794 40.424 77.6144 40.862 77.6024 41.372C77.6024 41.954 77.4284 42.464 77.0804 42.902C76.7324 43.334 76.2824 43.664 75.7304 43.892C75.1844 44.12 74.5994 44.21 73.9754 44.162ZM83.0478 44.234C82.2198 44.234 81.4638 44.021 80.7798 43.595C80.1018 43.169 79.5588 42.596 79.1508 41.876C78.7488 41.156 78.5478 40.361 78.5478 39.491C78.5478 38.837 78.6648 38.225 78.8988 37.655C79.1328 37.079 79.4538 36.575 79.8618 36.143C80.2758 35.705 80.7558 35.363 81.3018 35.117C81.8478 34.871 82.4298 34.748 83.0478 34.748C83.7498 34.748 84.3918 34.898 84.9738 35.198C85.5618 35.492 86.0598 35.897 86.4678 36.413C86.8758 36.929 87.1728 37.517 87.3588 38.177C87.5448 38.837 87.5868 39.527 87.4848 40.247H80.9058C80.9898 40.583 81.1278 40.886 81.3198 41.156C81.5118 41.42 81.7548 41.633 82.0488 41.795C82.3428 41.951 82.6758 42.032 83.0478 42.038C83.4318 42.044 83.7798 41.954 84.0918 41.768C84.4098 41.576 84.6738 41.318 84.8838 40.994L87.1248 41.516C86.7588 42.314 86.2128 42.968 85.4868 43.478C84.7608 43.982 83.9478 44.234 83.0478 44.234ZM80.8338 38.6H85.2618C85.1958 38.24 85.0548 37.916 84.8388 37.628C84.6288 37.334 84.3678 37.1 84.0558 36.926C83.7438 36.752 83.4078 36.665 83.0478 36.665C82.6878 36.665 82.3548 36.752 82.0488 36.926C81.7428 37.094 81.4818 37.325 81.2658 37.619C81.0558 37.907 80.9118 38.234 80.8338 38.6ZM93.4843 39.635V35H95.6803V39.599C95.6803 40.061 95.7763 40.484 95.9683 40.868C96.1603 41.252 96.4273 41.558 96.7693 41.786C97.1113 42.008 97.5013 42.119 97.9393 42.119C98.3773 42.119 98.7523 42.008 99.0643 41.786C99.3823 41.558 99.6253 41.252 99.7933 40.868C99.9673 40.484 100.054 40.061 100.054 39.599V35H102.25V44H100.054V42.929C99.7603 43.325 99.4033 43.646 98.9833 43.892C98.5693 44.132 98.0983 44.252 97.5703 44.252C96.7363 44.252 96.0163 44.045 95.4103 43.631C94.8043 43.211 94.3333 42.653 93.9973 41.957C93.6613 41.255 93.4903 40.481 93.4843 39.635ZM106.21 48.5H104.014V35H106.21V36.143C106.504 35.735 106.864 35.405 107.29 35.153C107.722 34.895 108.226 34.766 108.802 34.766C109.462 34.766 110.077 34.889 110.647 35.135C111.217 35.381 111.718 35.723 112.15 36.161C112.588 36.593 112.927 37.094 113.167 37.664C113.413 38.234 113.536 38.846 113.536 39.5C113.536 40.154 113.413 40.769 113.167 41.345C112.927 41.921 112.588 42.428 112.15 42.866C111.718 43.298 111.217 43.637 110.647 43.883C110.077 44.129 109.462 44.252 108.802 44.252C108.226 44.252 107.722 44.126 107.29 43.874C106.864 43.616 106.504 43.283 106.21 42.875V48.5ZM108.775 36.881C108.319 36.881 107.911 37.001 107.551 37.241C107.191 37.475 106.909 37.79 106.705 38.186C106.501 38.582 106.399 39.02 106.399 39.5C106.399 39.98 106.501 40.421 106.705 40.823C106.909 41.219 107.191 41.537 107.551 41.777C107.911 42.011 108.319 42.128 108.775 42.128C109.237 42.128 109.66 42.011 110.044 41.777C110.428 41.543 110.734 41.228 110.962 40.832C111.19 40.43 111.304 39.986 111.304 39.5C111.304 39.02 111.19 38.582 110.962 38.186C110.734 37.79 110.428 37.475 110.044 37.241C109.666 37.001 109.243 36.881 108.775 36.881ZM115.116 44V30.5H117.312V44H115.116ZM123.495 44.234C122.667 44.234 121.911 44.021 121.227 43.595C120.549 43.169 120.006 42.599 119.598 41.885C119.196 41.165 118.995 40.37 118.995 39.5C118.995 38.84 119.112 38.225 119.346 37.655C119.58 37.079 119.901 36.575 120.309 36.143C120.723 35.705 121.203 35.363 121.749 35.117C122.295 34.871 122.877 34.748 123.495 34.748C124.323 34.748 125.076 34.961 125.754 35.387C126.438 35.813 126.981 36.386 127.383 37.106C127.791 37.826 127.995 38.624 127.995 39.5C127.995 40.154 127.878 40.766 127.644 41.336C127.41 41.906 127.086 42.41 126.672 42.848C126.264 43.28 125.787 43.619 125.241 43.865C124.701 44.111 124.119 44.234 123.495 44.234ZM123.495 42.038C123.933 42.038 124.326 41.921 124.674 41.687C125.022 41.453 125.295 41.144 125.493 40.76C125.697 40.376 125.799 39.956 125.799 39.5C125.799 39.032 125.694 38.606 125.484 38.222C125.28 37.832 125.001 37.523 124.647 37.295C124.299 37.061 123.915 36.944 123.495 36.944C123.063 36.944 122.673 37.061 122.325 37.295C121.977 37.529 121.701 37.841 121.497 38.231C121.293 38.621 121.191 39.044 121.191 39.5C121.191 39.974 121.296 40.403 121.506 40.787C121.716 41.171 121.995 41.477 122.343 41.705C122.697 41.927 123.081 42.038 123.495 42.038ZM136.326 35H138.522V44H136.317L136.227 42.884C135.975 43.286 135.645 43.613 135.237 43.865C134.835 44.111 134.361 44.234 133.815 44.234C133.149 44.234 132.525 44.108 131.943 43.856C131.361 43.604 130.848 43.256 130.404 42.812C129.96 42.368 129.615 41.855 129.369 41.273C129.123 40.691 129 40.067 129 39.401C129 38.759 129.117 38.156 129.351 37.592C129.585 37.028 129.915 36.533 130.341 36.107C130.767 35.681 131.259 35.348 131.817 35.108C132.375 34.868 132.975 34.748 133.617 34.748C134.217 34.748 134.751 34.88 135.219 35.144C135.693 35.408 136.095 35.744 136.425 36.152L136.326 35ZM133.878 42.119C134.358 42.119 134.775 41.996 135.129 41.75C135.483 41.504 135.75 41.177 135.93 40.769C136.116 40.355 136.191 39.899 136.155 39.401C136.113 38.933 135.975 38.51 135.741 38.132C135.507 37.748 135.207 37.442 134.841 37.214C134.475 36.986 134.064 36.872 133.608 36.872C133.134 36.872 132.708 36.995 132.33 37.241C131.958 37.487 131.67 37.817 131.466 38.231C131.262 38.639 131.181 39.095 131.223 39.599C131.271 40.061 131.421 40.484 131.673 40.868C131.925 41.246 132.243 41.549 132.627 41.777C133.017 42.005 133.434 42.119 133.878 42.119ZM147.169 30.5H149.365V44H147.169V42.875C146.881 43.277 146.518 43.604 146.08 43.856C145.642 44.108 145.135 44.234 144.559 44.234C143.905 44.234 143.293 44.111 142.723 43.865C142.153 43.619 141.649 43.28 141.211 42.848C140.779 42.41 140.44 41.906 140.194 41.336C139.948 40.766 139.825 40.154 139.825 39.5C139.825 38.846 139.948 38.234 140.194 37.664C140.44 37.094 140.779 36.593 141.211 36.161C141.649 35.723 142.153 35.381 142.723 35.135C143.293 34.889 143.905 34.766 144.559 34.766C145.135 34.766 145.642 34.892 146.08 35.144C146.518 35.39 146.881 35.717 147.169 36.125V30.5ZM144.586 42.119C145.054 42.119 145.468 42.002 145.828 41.768C146.188 41.534 146.47 41.219 146.674 40.823C146.878 40.421 146.98 39.98 146.98 39.5C146.98 39.014 146.878 38.573 146.674 38.177C146.47 37.775 146.185 37.457 145.819 37.223C145.459 36.989 145.048 36.872 144.586 36.872C144.124 36.872 143.704 36.992 143.326 37.232C142.948 37.466 142.645 37.781 142.417 38.177C142.189 38.573 142.075 39.014 142.075 39.5C142.075 39.986 142.189 40.427 142.417 40.823C142.645 41.219 142.948 41.534 143.326 41.768C143.71 42.002 144.13 42.119 144.586 42.119ZM161.955 35H164.286L159.363 48.5H157.032L158.661 44L155.421 35H157.824L159.759 40.994L161.955 35ZM169.145 44.234C168.317 44.234 167.561 44.021 166.877 43.595C166.199 43.169 165.656 42.599 165.248 41.885C164.846 41.165 164.645 40.37 164.645 39.5C164.645 38.84 164.762 38.225 164.996 37.655C165.23 37.079 165.551 36.575 165.959 36.143C166.373 35.705 166.853 35.363 167.399 35.117C167.945 34.871 168.527 34.748 169.145 34.748C169.973 34.748 170.726 34.961 171.404 35.387C172.088 35.813 172.631 36.386 173.033 37.106C173.441 37.826 173.645 38.624 173.645 39.5C173.645 40.154 173.528 40.766 173.294 41.336C173.06 41.906 172.736 42.41 172.322 42.848C171.914 43.28 171.437 43.619 170.891 43.865C170.351 44.111 169.769 44.234 169.145 44.234ZM169.145 42.038C169.583 42.038 169.976 41.921 170.324 41.687C170.672 41.453 170.945 41.144 171.143 40.76C171.347 40.376 171.449 39.956 171.449 39.5C171.449 39.032 171.344 38.606 171.134 38.222C170.93 37.832 170.651 37.523 170.297 37.295C169.949 37.061 169.565 36.944 169.145 36.944C168.713 36.944 168.323 37.061 167.975 37.295C167.627 37.529 167.351 37.841 167.147 38.231C166.943 38.621 166.841 39.044 166.841 39.5C166.841 39.974 166.946 40.403 167.156 40.787C167.366 41.171 167.645 41.477 167.993 41.705C168.347 41.927 168.731 42.038 169.145 42.038ZM174.853 39.635V35H177.049V39.599C177.049 40.061 177.145 40.484 177.337 40.868C177.529 41.252 177.796 41.558 178.138 41.786C178.48 42.008 178.87 42.119 179.308 42.119C179.746 42.119 180.121 42.008 180.433 41.786C180.751 41.558 180.994 41.252 181.162 40.868C181.336 40.484 181.423 40.061 181.423 39.599V35H183.619V44H181.423V42.929C181.129 43.325 180.772 43.646 180.352 43.892C179.938 44.132 179.467 44.252 178.939 44.252C178.105 44.252 177.385 44.045 176.779 43.631C176.173 43.211 175.702 42.653 175.366 41.957C175.03 41.255 174.859 40.481 174.853 39.635ZM191.259 37.232C191.097 37.124 190.92 37.037 190.728 36.971C190.542 36.905 190.335 36.872 190.107 36.872C189.669 36.872 189.291 36.986 188.973 37.214C188.661 37.442 188.421 37.748 188.253 38.132C188.085 38.51 188.001 38.93 188.001 39.392V44H185.787V35H187.983V36.062C188.283 35.666 188.64 35.351 189.054 35.117C189.474 34.883 189.948 34.766 190.476 34.766C190.68 34.766 190.875 34.772 191.061 34.784C191.253 34.796 191.436 34.829 191.61 34.883L191.259 37.232ZM197.283 35H199.479V44H197.283V35ZM198.39 33.659C198.072 33.659 197.802 33.554 197.58 33.344C197.358 33.128 197.247 32.858 197.247 32.534C197.247 32.216 197.358 31.949 197.58 31.733C197.802 31.517 198.072 31.409 198.39 31.409C198.708 31.409 198.975 31.517 199.191 31.733C199.413 31.949 199.524 32.216 199.524 32.534C199.524 32.858 199.413 33.128 199.191 33.344C198.975 33.554 198.708 33.659 198.39 33.659ZM202.101 44V35H204.297V35.909C204.561 35.615 204.84 35.378 205.134 35.198C205.434 35.012 205.773 34.919 206.151 34.919C206.763 34.919 207.321 35.048 207.825 35.306C208.335 35.558 208.773 35.918 209.139 36.386C209.505 35.918 209.943 35.558 210.453 35.306C210.963 35.048 211.521 34.919 212.127 34.919C212.901 34.919 213.591 35.111 214.197 35.495C214.809 35.879 215.292 36.395 215.646 37.043C216 37.685 216.177 38.396 216.177 39.176V44H213.981V39.176C213.981 38.792 213.903 38.447 213.747 38.141C213.591 37.829 213.372 37.58 213.09 37.394C212.814 37.208 212.493 37.115 212.127 37.115C211.761 37.115 211.434 37.208 211.146 37.394C210.864 37.58 210.642 37.829 210.48 38.141C210.318 38.447 210.237 38.792 210.237 39.176V44H208.041V39.176C208.041 38.792 207.957 38.447 207.789 38.141C207.627 37.829 207.402 37.58 207.114 37.394C206.832 37.208 206.511 37.115 206.151 37.115C205.803 37.115 205.488 37.211 205.206 37.403C204.924 37.595 204.702 37.85 204.54 38.168C204.378 38.486 204.297 38.834 204.297 39.212V44H202.101ZM224.585 35H226.781V44H224.576L224.486 42.884C224.234 43.286 223.904 43.613 223.496 43.865C223.094 44.111 222.62 44.234 222.074 44.234C221.408 44.234 220.784 44.108 220.202 43.856C219.62 43.604 219.107 43.256 218.663 42.812C218.219 42.368 217.874 41.855 217.628 41.273C217.382 40.691 217.259 40.067 217.259 39.401C217.259 38.759 217.376 38.156 217.61 37.592C217.844 37.028 218.174 36.533 218.6 36.107C219.026 35.681 219.518 35.348 220.076 35.108C220.634 34.868 221.234 34.748 221.876 34.748C222.476 34.748 223.01 34.88 223.478 35.144C223.952 35.408 224.354 35.744 224.684 36.152L224.585 35ZM222.137 42.119C222.617 42.119 223.034 41.996 223.388 41.75C223.742 41.504 224.009 41.177 224.189 40.769C224.375 40.355 224.45 39.899 224.414 39.401C224.372 38.933 224.234 38.51 224 38.132C223.766 37.748 223.466 37.442 223.1 37.214C222.734 36.986 222.323 36.872 221.867 36.872C221.393 36.872 220.967 36.995 220.589 37.241C220.217 37.487 219.929 37.817 219.725 38.231C219.521 38.639 219.44 39.095 219.482 39.599C219.53 40.061 219.68 40.484 219.932 40.868C220.184 41.246 220.502 41.549 220.886 41.777C221.276 42.005 221.693 42.119 222.137 42.119ZM235.303 35H237.499V44.171C237.499 44.819 237.367 45.407 237.103 45.935C236.839 46.469 236.479 46.925 236.023 47.303C235.567 47.687 235.045 47.981 234.457 48.185C233.869 48.395 233.251 48.5 232.603 48.5C231.973 48.5 231.367 48.371 230.785 48.113C230.203 47.855 229.687 47.501 229.237 47.051C228.793 46.607 228.454 46.1 228.22 45.53L230.227 44.621C230.347 44.951 230.527 45.239 230.767 45.485C231.013 45.737 231.295 45.932 231.613 46.07C231.931 46.214 232.261 46.286 232.603 46.286C232.951 46.286 233.284 46.238 233.602 46.142C233.926 46.046 234.217 45.905 234.475 45.719C234.733 45.539 234.934 45.317 235.078 45.053C235.228 44.795 235.303 44.501 235.303 44.171V42.902C235.021 43.298 234.667 43.619 234.241 43.865C233.815 44.111 233.323 44.234 232.765 44.234C232.117 44.234 231.511 44.111 230.947 43.865C230.383 43.619 229.885 43.28 229.453 42.848C229.027 42.41 228.691 41.906 228.445 41.336C228.205 40.766 228.085 40.154 228.085 39.5C228.085 38.846 228.205 38.234 228.445 37.664C228.691 37.094 229.027 36.593 229.453 36.161C229.885 35.723 230.383 35.381 230.947 35.135C231.511 34.889 232.117 34.766 232.765 34.766C233.323 34.766 233.815 34.889 234.241 35.135C234.667 35.375 235.021 35.693 235.303 36.089V35ZM232.792 42.119C233.254 42.119 233.662 42.002 234.016 41.768C234.376 41.528 234.658 41.21 234.862 40.814C235.066 40.412 235.168 39.974 235.168 39.5C235.168 39.02 235.063 38.582 234.853 38.186C234.649 37.79 234.367 37.472 234.007 37.232C233.653 36.992 233.248 36.872 232.792 36.872C232.342 36.872 231.931 36.992 231.559 37.232C231.187 37.466 230.89 37.781 230.668 38.177C230.446 38.573 230.335 39.014 230.335 39.5C230.335 39.986 230.446 40.427 230.668 40.823C230.89 41.219 231.187 41.534 231.559 41.768C231.931 42.002 232.342 42.119 232.792 42.119ZM243.272 44.234C242.444 44.234 241.688 44.021 241.004 43.595C240.326 43.169 239.783 42.596 239.375 41.876C238.973 41.156 238.772 40.361 238.772 39.491C238.772 38.837 238.889 38.225 239.123 37.655C239.357 37.079 239.678 36.575 240.086 36.143C240.5 35.705 240.98 35.363 241.526 35.117C242.072 34.871 242.654 34.748 243.272 34.748C243.974 34.748 244.616 34.898 245.198 35.198C245.786 35.492 246.284 35.897 246.692 36.413C247.1 36.929 247.397 37.517 247.583 38.177C247.769 38.837 247.811 39.527 247.709 40.247H241.13C241.214 40.583 241.352 40.886 241.544 41.156C241.736 41.42 241.979 41.633 242.273 41.795C242.567 41.951 242.9 42.032 243.272 42.038C243.656 42.044 244.004 41.954 244.316 41.768C244.634 41.576 244.898 41.318 245.108 40.994L247.349 41.516C246.983 42.314 246.437 42.968 245.711 43.478C244.985 43.982 244.172 44.234 243.272 44.234ZM241.058 38.6H245.486C245.42 38.24 245.279 37.916 245.063 37.628C244.853 37.334 244.592 37.1 244.28 36.926C243.968 36.752 243.632 36.665 243.272 36.665C242.912 36.665 242.579 36.752 242.273 36.926C241.967 37.094 241.706 37.325 241.49 37.619C241.28 37.907 241.136 38.234 241.058 38.6Z" fill="white"/>
</svg>
