<svg width="102" height="91" viewBox="0 0 102 91" fill="none" xmlns="http://www.w3.org/2000/svg">
<path d="M93.399 80.861C95.1475 77.63 96.5979 74.2464 97.732 70.752C98.8048 67.4472 99.6383 64.0695 100.226 60.645C100.808 57.3019 101.187 53.9268 101.361 50.538C101.449 48.9 101.515 47.238 101.515 45.485C101.515 43.732 101.449 42.07 101.361 40.431C101.186 37.0426 100.807 33.6677 100.226 30.325C99.6383 26.9005 98.8048 23.5228 97.732 20.218H25.587C23.9487 23.4234 22.7101 26.8178 21.899 30.325C21.1169 33.6457 20.6152 37.0263 20.399 40.431C20.289 42.037 20.215 43.708 20.215 45.485C20.215 47.262 20.289 48.932 20.399 50.538C20.6149 53.9431 21.1166 57.324 21.899 60.645C22.7094 64.1524 23.948 67.5469 25.587 70.752H75.926C77.5681 67.5478 78.8085 64.1531 79.619 60.645C80.4012 57.3239 80.903 53.9431 81.119 50.538C81.23 48.932 81.305 47.263 81.305 45.485C81.305 43.707 81.23 42.037 81.119 40.431H40.63C40.504 42.005 40.43 43.683 40.43 45.485C40.43 47.287 40.504 48.964 40.63 50.538H70.992C70.7524 53.9634 70.1398 57.3525 69.165 60.645H32.353C31.3785 57.3522 30.7642 53.9633 30.521 50.538C30.397 48.964 30.321 47.289 30.321 45.485C30.321 43.681 30.394 42.005 30.521 40.431C30.7646 37.006 31.3789 33.6176 32.353 30.325H89.967C90.6228 33.6591 91.0481 37.0344 91.24 40.427C91.34 42.052 91.407 43.727 91.407 45.481C91.407 47.235 91.337 48.909 91.24 50.534C91.048 53.9283 90.622 57.3053 89.965 60.641C89.2868 64.0907 88.3022 67.4732 87.023 70.748C85.6391 74.3536 83.7717 77.7543 81.472 80.857H20.04C17.7387 77.755 15.8705 74.3541 14.487 70.748C13.2077 67.4733 12.2235 64.0908 11.546 60.641C10.8871 57.3056 10.4611 53.9285 10.271 50.534C10.171 48.909 10.105 47.243 10.105 45.481C10.105 43.719 10.175 42.052 10.271 40.427C10.4614 37.0329 10.8874 33.6561 11.546 30.321C12.2236 26.8712 13.2079 23.4888 14.487 20.214C15.8709 16.6087 17.7391 13.2085 20.04 10.107H93.397C89.625 3.187 85.952 0 85.952 0H15.559C15.559 0 11.888 3.187 8.11699 10.107C6.36874 13.3374 4.91842 16.7204 3.784 20.214C2.71127 23.5189 1.87747 26.8966 1.289 30.321C0.707194 33.6637 0.327835 37.0385 0.153 40.427C0.0649999 42.066 0 43.727 0 45.481C0 47.235 0.0649999 48.896 0.153 50.534C0.327608 53.9228 0.706968 57.298 1.289 60.641C1.87747 64.0654 2.71127 67.4431 3.784 70.748C4.91769 74.2425 6.36803 77.6262 8.11699 80.857C11.888 87.774 15.559 90.964 15.559 90.964H85.954C85.954 90.964 89.627 87.778 93.399 80.861Z" fill="#FD3E71"/>
</svg>
