<svg width="208" height="208" viewBox="0 0 208 208" fill="none" xmlns="http://www.w3.org/2000/svg">
<rect width="208" height="208" rx="10" fill="#C4C4C4"/>
<path d="M104 20C70.88 20 44 46.88 44 80C44 113.12 70.88 140 104 140C137.12 140 164 113.12 164 80C164 46.88 137.12 20 104 20ZM104 38C113.96 38 122 46.04 122 56C122 65.96 113.96 74 104 74C94.04 74 86 65.96 86 56C86 46.04 94.04 38 104 38ZM104 123.2C89 123.2 75.74 115.52 68 103.88C68.18 91.94 92 85.4 104 85.4C115.94 85.4 139.82 91.94 140 103.88C132.26 115.52 119 123.2 104 123.2Z" fill="black"/>
<path d="M51.0247 159.2H52.7397L49.3937 164.576V169H47.9377V164.576L44.5987 159.2H46.3137L48.6657 162.987L51.0247 159.2ZM55.7276 169.182C55.0836 169.182 54.4956 169.016 53.9636 168.685C53.4363 168.354 53.014 167.91 52.6966 167.355C52.384 166.795 52.2276 166.177 52.2276 165.5C52.2276 164.987 52.3186 164.508 52.5006 164.065C52.6826 163.617 52.9323 163.225 53.2496 162.889C53.5716 162.548 53.945 162.282 54.3696 162.091C54.7943 161.9 55.247 161.804 55.7276 161.804C56.3716 161.804 56.9573 161.97 57.4846 162.301C58.0166 162.632 58.439 163.078 58.7516 163.638C59.069 164.198 59.2276 164.819 59.2276 165.5C59.2276 166.009 59.1366 166.485 58.9546 166.928C58.7726 167.371 58.5206 167.763 58.1986 168.104C57.8813 168.44 57.5103 168.704 57.0856 168.895C56.6656 169.086 56.213 169.182 55.7276 169.182ZM55.7276 167.726C56.115 167.726 56.4626 167.623 56.7706 167.418C57.0786 167.213 57.3213 166.942 57.4986 166.606C57.6806 166.265 57.7716 165.897 57.7716 165.5C57.7716 165.094 57.6783 164.721 57.4916 164.38C57.3096 164.039 57.0646 163.769 56.7566 163.568C56.4486 163.363 56.1056 163.26 55.7276 163.26C55.345 163.26 54.9973 163.363 54.6846 163.568C54.3766 163.773 54.1316 164.046 53.9496 164.387C53.7723 164.728 53.6836 165.099 53.6836 165.5C53.6836 165.915 53.777 166.291 53.9636 166.627C54.1503 166.963 54.3976 167.231 54.7056 167.432C55.0183 167.628 55.359 167.726 55.7276 167.726ZM60.2218 165.654V162H61.6778V165.626C61.6778 166.023 61.7595 166.384 61.9228 166.711C62.0908 167.033 62.3172 167.292 62.6018 167.488C62.8912 167.679 63.2202 167.775 63.5888 167.775C63.9482 167.775 64.2632 167.679 64.5338 167.488C64.8092 167.292 65.0215 167.033 65.1708 166.711C65.3248 166.384 65.4018 166.023 65.4018 165.626V162H66.8578V169H65.4018V168.048C65.1592 168.398 64.8652 168.676 64.5198 168.881C64.1745 169.086 63.7848 169.189 63.3508 169.189C62.7255 169.189 62.1772 169.03 61.7058 168.713C61.2392 168.391 60.8775 167.962 60.6208 167.425C60.3642 166.888 60.2312 166.298 60.2218 165.654ZM72.6713 163.463C72.55 163.388 72.417 163.33 72.2723 163.288C72.1323 163.241 71.9783 163.218 71.8103 163.218C71.4463 163.218 71.129 163.314 70.8583 163.505C70.5877 163.696 70.3753 163.955 70.2213 164.282C70.072 164.609 69.9973 164.97 69.9973 165.367V169H68.5343V162H69.9903V162.945C70.233 162.595 70.527 162.32 70.8723 162.119C71.2223 161.914 71.612 161.811 72.0413 161.811C72.2 161.811 72.3493 161.818 72.4893 161.832C72.634 161.846 72.7717 161.874 72.9023 161.916L72.6713 163.463ZM77.3117 169V159.2H80.6857C81.213 159.2 81.689 159.331 82.1137 159.592C82.543 159.853 82.8837 160.206 83.1357 160.649C83.3923 161.092 83.5207 161.582 83.5207 162.119C83.5207 162.665 83.39 163.16 83.1287 163.603C82.872 164.042 82.529 164.392 82.0997 164.653C81.6703 164.914 81.199 165.045 80.6857 165.045H78.7677V169H77.3117ZM78.7677 163.589H80.5387C80.8187 163.589 81.073 163.519 81.3017 163.379C81.535 163.239 81.7193 163.052 81.8547 162.819C81.9947 162.586 82.0647 162.322 82.0647 162.028C82.0647 161.734 81.9947 161.47 81.8547 161.237C81.7193 160.999 81.535 160.812 81.3017 160.677C81.073 160.537 80.8187 160.467 80.5387 160.467H78.7677V163.589ZM88.8041 163.463C88.6828 163.388 88.5498 163.33 88.4051 163.288C88.2651 163.241 88.1111 163.218 87.9431 163.218C87.5791 163.218 87.2618 163.314 86.9911 163.505C86.7205 163.696 86.5081 163.955 86.3541 164.282C86.2048 164.609 86.1301 164.97 86.1301 165.367V169H84.6671V162H86.1231V162.945C86.3658 162.595 86.6598 162.32 87.0051 162.119C87.3551 161.914 87.7448 161.811 88.1741 161.811C88.3328 161.811 88.4821 161.818 88.6221 161.832C88.7668 161.846 88.9045 161.874 89.0351 161.916L88.8041 163.463ZM92.6964 169.182C92.0524 169.182 91.4644 169.016 90.9324 168.685C90.405 168.354 89.9827 167.91 89.6654 167.355C89.3527 166.795 89.1964 166.177 89.1964 165.5C89.1964 164.987 89.2874 164.508 89.4694 164.065C89.6514 163.617 89.901 163.225 90.2184 162.889C90.5404 162.548 90.9137 162.282 91.3384 162.091C91.763 161.9 92.2157 161.804 92.6964 161.804C93.3404 161.804 93.926 161.97 94.4534 162.301C94.9854 162.632 95.4077 163.078 95.7204 163.638C96.0377 164.198 96.1964 164.819 96.1964 165.5C96.1964 166.009 96.1054 166.485 95.9234 166.928C95.7414 167.371 95.4894 167.763 95.1674 168.104C94.85 168.44 94.479 168.704 94.0544 168.895C93.6344 169.086 93.1817 169.182 92.6964 169.182ZM92.6964 167.726C93.0837 167.726 93.4314 167.623 93.7394 167.418C94.0474 167.213 94.29 166.942 94.4674 166.606C94.6494 166.265 94.7404 165.897 94.7404 165.5C94.7404 165.094 94.647 164.721 94.4604 164.38C94.2784 164.039 94.0334 163.769 93.7254 163.568C93.4174 163.363 93.0744 163.26 92.6964 163.26C92.3137 163.26 91.966 163.363 91.6534 163.568C91.3454 163.773 91.1004 164.046 90.9184 164.387C90.741 164.728 90.6524 165.099 90.6524 165.5C90.6524 165.915 90.7457 166.291 90.9324 166.627C91.119 166.963 91.3664 167.231 91.6744 167.432C91.987 167.628 92.3277 167.726 92.6964 167.726ZM99.2494 160.411V162H101.223V163.456H99.2494V169H97.7934V163.456H96.9604V162H97.7934V160.411C97.7934 160.028 97.8867 159.681 98.0734 159.368C98.26 159.051 98.5097 158.799 98.8224 158.612C99.1397 158.425 99.492 158.332 99.8794 158.332C100.159 158.332 100.432 158.388 100.698 158.5C100.964 158.612 101.202 158.785 101.412 159.018L100.369 160.047C100.318 159.963 100.246 159.9 100.152 159.858C100.064 159.811 99.9727 159.788 99.8794 159.788C99.7067 159.788 99.5574 159.849 99.4314 159.97C99.31 160.091 99.2494 160.238 99.2494 160.411ZM102.304 162H103.76V169H102.304V162ZM103.039 160.845C102.82 160.845 102.635 160.773 102.486 160.628C102.337 160.483 102.262 160.301 102.262 160.082C102.262 159.867 102.337 159.688 102.486 159.543C102.635 159.394 102.82 159.319 103.039 159.319C103.254 159.319 103.436 159.394 103.585 159.543C103.734 159.688 103.809 159.867 103.809 160.082C103.809 160.301 103.734 160.483 103.585 160.628C103.436 160.773 103.254 160.845 103.039 160.845ZM106.052 169V158.5H107.501V169H106.052ZM112.343 169.182C111.699 169.182 111.111 169.016 110.579 168.685C110.052 168.354 109.629 167.91 109.312 167.355C108.999 166.795 108.843 166.177 108.843 165.5C108.843 164.987 108.934 164.508 109.116 164.065C109.298 163.617 109.548 163.225 109.865 162.889C110.187 162.548 110.56 162.282 110.985 162.091C111.41 161.9 111.862 161.804 112.343 161.804C112.88 161.804 113.372 161.916 113.82 162.14C114.268 162.359 114.651 162.665 114.968 163.057C115.285 163.444 115.519 163.892 115.668 164.401C115.817 164.905 115.862 165.442 115.801 166.011H110.404C110.465 166.333 110.581 166.625 110.754 166.886C110.931 167.143 111.155 167.346 111.426 167.495C111.701 167.644 112.007 167.721 112.343 167.726C112.698 167.726 113.02 167.637 113.309 167.46C113.603 167.283 113.843 167.038 114.03 166.725L115.507 167.068C115.227 167.689 114.805 168.197 114.24 168.594C113.675 168.986 113.043 169.182 112.343 169.182ZM110.355 164.898H114.331C114.284 164.562 114.165 164.259 113.974 163.988C113.787 163.713 113.552 163.496 113.267 163.337C112.987 163.174 112.679 163.092 112.343 163.092C112.012 163.092 111.704 163.171 111.419 163.33C111.139 163.489 110.906 163.706 110.719 163.981C110.537 164.252 110.416 164.557 110.355 164.898ZM120.46 169V159.2H123.834C124.361 159.2 124.837 159.331 125.262 159.592C125.691 159.853 126.032 160.206 126.284 160.649C126.541 161.092 126.669 161.582 126.669 162.119C126.669 162.665 126.538 163.16 126.277 163.603C126.02 164.042 125.677 164.392 125.248 164.653C124.819 164.914 124.347 165.045 123.834 165.045H121.916V169H120.46ZM121.916 163.589H123.687C123.967 163.589 124.221 163.519 124.45 163.379C124.683 163.239 124.868 163.052 125.003 162.819C125.143 162.586 125.213 162.322 125.213 162.028C125.213 161.734 125.143 161.47 125.003 161.237C124.868 160.999 124.683 160.812 124.45 160.677C124.221 160.537 123.967 160.467 123.687 160.467H121.916V163.589ZM127.816 162H129.272V169H127.816V162ZM128.551 160.845C128.331 160.845 128.147 160.773 127.998 160.628C127.848 160.483 127.774 160.301 127.774 160.082C127.774 159.867 127.848 159.688 127.998 159.543C128.147 159.394 128.331 159.319 128.551 159.319C128.765 159.319 128.947 159.394 129.097 159.543C129.246 159.688 129.321 159.867 129.321 160.082C129.321 160.301 129.246 160.483 129.097 160.628C128.947 160.773 128.765 160.845 128.551 160.845ZM136.051 167.012L137.353 167.719C137.035 168.162 136.632 168.517 136.142 168.783C135.656 169.049 135.129 169.182 134.56 169.182C133.916 169.182 133.328 169.016 132.796 168.685C132.268 168.354 131.846 167.91 131.529 167.355C131.216 166.795 131.06 166.177 131.06 165.5C131.06 164.987 131.151 164.508 131.333 164.065C131.515 163.617 131.764 163.225 132.082 162.889C132.404 162.548 132.777 162.282 133.202 162.091C133.626 161.9 134.079 161.804 134.56 161.804C135.129 161.804 135.656 161.937 136.142 162.203C136.632 162.469 137.035 162.826 137.353 163.274L136.051 163.981C135.855 163.748 135.626 163.57 135.365 163.449C135.103 163.323 134.835 163.26 134.56 163.26C134.177 163.26 133.829 163.365 133.517 163.575C133.209 163.78 132.964 164.053 132.782 164.394C132.604 164.73 132.516 165.099 132.516 165.5C132.516 165.897 132.607 166.265 132.789 166.606C132.971 166.942 133.216 167.213 133.524 167.418C133.836 167.623 134.182 167.726 134.56 167.726C134.849 167.726 135.124 167.661 135.386 167.53C135.647 167.399 135.869 167.227 136.051 167.012ZM142.312 163.456H140.842L140.835 169H139.379L139.386 163.456H138.273V162H139.386L139.379 159.802H140.835L140.842 162H142.312V163.456ZM143.566 165.654V162H145.022V165.626C145.022 166.023 145.103 166.384 145.267 166.711C145.435 167.033 145.661 167.292 145.946 167.488C146.235 167.679 146.564 167.775 146.933 167.775C147.292 167.775 147.607 167.679 147.878 167.488C148.153 167.292 148.365 167.033 148.515 166.711C148.669 166.384 148.746 166.023 148.746 165.626V162H150.202V169H148.746V168.048C148.503 168.398 148.209 168.676 147.864 168.881C147.518 169.086 147.129 169.189 146.695 169.189C146.069 169.189 145.521 169.03 145.05 168.713C144.583 168.391 144.221 167.962 143.965 167.425C143.708 166.888 143.575 166.298 143.566 165.654ZM156.015 163.463C155.894 163.388 155.761 163.33 155.616 163.288C155.476 163.241 155.322 163.218 155.154 163.218C154.79 163.218 154.473 163.314 154.202 163.505C153.931 163.696 153.719 163.955 153.565 164.282C153.416 164.609 153.341 164.97 153.341 165.367V169H151.878V162H153.334V162.945C153.577 162.595 153.871 162.32 154.216 162.119C154.566 161.914 154.956 161.811 155.385 161.811C155.544 161.811 155.693 161.818 155.833 161.832C155.978 161.846 156.115 161.874 156.246 161.916L156.015 163.463ZM159.907 169.182C159.263 169.182 158.675 169.016 158.143 168.685C157.616 168.354 157.194 167.91 156.876 167.355C156.564 166.795 156.407 166.177 156.407 165.5C156.407 164.987 156.498 164.508 156.68 164.065C156.862 163.617 157.112 163.225 157.429 162.889C157.751 162.548 158.125 162.282 158.549 162.091C158.974 161.9 159.427 161.804 159.907 161.804C160.444 161.804 160.936 161.916 161.384 162.14C161.832 162.359 162.215 162.665 162.532 163.057C162.85 163.444 163.083 163.892 163.232 164.401C163.382 164.905 163.426 165.442 163.365 166.011H157.968C158.029 166.333 158.146 166.625 158.318 166.886C158.496 167.143 158.72 167.346 158.99 167.495C159.266 167.644 159.571 167.721 159.907 167.726C160.262 167.726 160.584 167.637 160.873 167.46C161.167 167.283 161.408 167.038 161.594 166.725L163.071 167.068C162.791 167.689 162.369 168.197 161.804 168.594C161.24 168.986 160.607 169.182 159.907 169.182ZM157.919 164.898H161.895C161.849 164.562 161.73 164.259 161.538 163.988C161.352 163.713 161.116 163.496 160.831 163.337C160.551 163.174 160.243 163.092 159.907 163.092C159.576 163.092 159.268 163.171 158.983 163.33C158.703 163.489 158.47 163.706 158.283 163.981C158.101 164.252 157.98 164.557 157.919 164.898ZM96.0776 176.2H97.5336V186H96.0776V181.478H91.6466V186H90.1906V176.2H91.6466V180.022H96.0776V176.2ZM102.075 186.182C101.431 186.182 100.843 186.016 100.311 185.685C99.7839 185.354 99.3616 184.91 99.0443 184.355C98.7316 183.795 98.5753 183.177 98.5753 182.5C98.5753 181.987 98.6663 181.508 98.8483 181.065C99.0303 180.617 99.2799 180.225 99.5973 179.889C99.9193 179.548 100.293 179.282 100.717 179.091C101.142 178.9 101.595 178.804 102.075 178.804C102.612 178.804 103.104 178.916 103.552 179.14C104 179.359 104.383 179.665 104.7 180.057C105.018 180.444 105.251 180.892 105.4 181.401C105.55 181.905 105.594 182.442 105.533 183.011H100.136C100.197 183.333 100.314 183.625 100.486 183.886C100.664 184.143 100.888 184.346 101.158 184.495C101.434 184.644 101.739 184.721 102.075 184.726C102.43 184.726 102.752 184.637 103.041 184.46C103.335 184.283 103.576 184.038 103.762 183.725L105.239 184.068C104.959 184.689 104.537 185.197 103.972 185.594C103.408 185.986 102.775 186.182 102.075 186.182ZM100.087 181.898H104.063C104.017 181.562 103.898 181.259 103.706 180.988C103.52 180.713 103.284 180.496 102.999 180.337C102.719 180.174 102.411 180.092 102.075 180.092C101.744 180.092 101.436 180.171 101.151 180.33C100.871 180.489 100.638 180.706 100.451 180.981C100.269 181.252 100.148 181.557 100.087 181.898ZM110.843 180.463C110.722 180.388 110.589 180.33 110.444 180.288C110.304 180.241 110.15 180.218 109.982 180.218C109.618 180.218 109.301 180.314 109.03 180.505C108.76 180.696 108.547 180.955 108.393 181.282C108.244 181.609 108.169 181.97 108.169 182.367V186H106.706V179H108.162V179.945C108.405 179.595 108.699 179.32 109.044 179.119C109.394 178.914 109.784 178.811 110.213 178.811C110.372 178.811 110.521 178.818 110.661 178.832C110.806 178.846 110.944 178.874 111.074 178.916L110.843 180.463ZM114.735 186.182C114.091 186.182 113.503 186.016 112.971 185.685C112.444 185.354 112.022 184.91 111.704 184.355C111.392 183.795 111.235 183.177 111.235 182.5C111.235 181.987 111.326 181.508 111.508 181.065C111.69 180.617 111.94 180.225 112.257 179.889C112.579 179.548 112.953 179.282 113.377 179.091C113.802 178.9 114.255 178.804 114.735 178.804C115.272 178.804 115.764 178.916 116.212 179.14C116.66 179.359 117.043 179.665 117.36 180.057C117.678 180.444 117.911 180.892 118.06 181.401C118.21 181.905 118.254 182.442 118.193 183.011H112.796C112.857 183.333 112.974 183.625 113.146 183.886C113.324 184.143 113.548 184.346 113.818 184.495C114.094 184.644 114.399 184.721 114.735 184.726C115.09 184.726 115.412 184.637 115.701 184.46C115.995 184.283 116.236 184.038 116.422 183.725L117.899 184.068C117.619 184.689 117.197 185.197 116.632 185.594C116.068 185.986 115.435 186.182 114.735 186.182ZM112.747 181.898H116.723C116.677 181.562 116.558 181.259 116.366 180.988C116.18 180.713 115.944 180.496 115.659 180.337C115.379 180.174 115.071 180.092 114.735 180.092C114.404 180.092 114.096 180.171 113.811 180.33C113.531 180.489 113.298 180.706 113.111 180.981C112.929 181.252 112.808 181.557 112.747 181.898Z" fill="black"/>
</svg>
