<svg width="81" height="80" viewBox="0 0 81 80" fill="none" xmlns="http://www.w3.org/2000/svg">
<path d="M0.833252 40C0.833252 17.9086 18.7419 0 40.8333 0V0C62.9246 0 80.8333 17.9086 80.8333 40V40C80.8333 62.0914 62.9246 80 40.8333 80V80C18.7419 80 0.833252 62.0914 0.833252 40V40Z" fill="url(#paint0_linear_1075_4256)"/>
<path d="M27.0833 50V30C27.0833 30.663 27.3466 31.2989 27.8155 31.7678C28.2843 32.2366 28.9202 32.5 29.5833 32.5H54.5833C54.9148 32.5 55.2327 32.6317 55.4671 32.8661C55.7016 33.1005 55.8333 33.4185 55.8333 33.75V51.25C55.8333 51.5815 55.7016 51.8995 55.4671 52.1339C55.2327 52.3683 54.9148 52.5 54.5833 52.5H29.5833C28.9202 52.5 28.2843 52.2366 27.8155 51.7678C27.3466 51.2989 27.0833 50.663 27.0833 50Z" fill="white"/>
<path d="M27.0833 30V50C27.0833 50.663 27.3466 51.2989 27.8155 51.7678C28.2843 52.2366 28.9202 52.5 29.5833 52.5H54.5833C54.9148 52.5 55.2327 52.3683 55.4671 52.1339C55.7016 51.8995 55.8333 51.5815 55.8333 51.25V33.75C55.8333 33.4185 55.7016 33.1005 55.4671 32.8661C55.2327 32.6317 54.9148 32.5 54.5833 32.5H29.5833C28.9202 32.5 28.2843 32.2366 27.8155 31.7678C27.3466 31.2989 27.0833 30.663 27.0833 30ZM27.0833 30C27.0833 29.337 27.3466 28.7011 27.8155 28.2322C28.2843 27.7634 28.9202 27.5 29.5833 27.5H49.5833" stroke="white" stroke-width="2" stroke-linecap="round" stroke-linejoin="round"/>
<path d="M48.9583 44.375C49.9938 44.375 50.8333 43.5355 50.8333 42.5C50.8333 41.4645 49.9938 40.625 48.9583 40.625C47.9227 40.625 47.0833 41.4645 47.0833 42.5C47.0833 43.5355 47.9227 44.375 48.9583 44.375Z" fill="url(#paint1_linear_1075_4256)"/>
<defs>
<linearGradient id="paint0_linear_1075_4256" x1="-4.2822" y1="95.7265" x2="125.164" y2="38.8124" gradientUnits="userSpaceOnUse">
<stop stop-color="#FE6F2D"/>
<stop offset="0.650355" stop-color="#FDCE38"/>
</linearGradient>
<linearGradient id="paint1_linear_1075_4256" x1="48.9616" y1="39.8397" x2="46.5811" y2="44.3801" gradientUnits="userSpaceOnUse">
<stop stop-color="#23D3A4"/>
<stop offset="1" stop-color="#5B49CF"/>
</linearGradient>
</defs>
</svg>
